<svg width="20" height="21" viewBox="0 0 20 21" fill="none" xmlns="http://www.w3.org/2000/svg">
<path fill-rule="evenodd" clip-rule="evenodd" d="M19.9989 4.3335H0V7.66664C0.589337 7.66664 1.15454 7.90076 1.57126 8.31748C1.98799 8.73421 2.2221 9.29941 2.2221 9.88874V14.3329C2.2221 17.475 2.2221 19.0471 3.19871 20.0226C4.17421 20.9992 5.74635 20.9992 8.8884 20.9992H11.1105C14.2537 20.9992 15.8247 20.9992 16.8002 20.0226C17.7779 19.0471 17.7779 17.475 17.7779 14.3329V9.88874C17.7779 9.29941 18.012 8.73421 18.4287 8.31748C18.8455 7.90076 19.4107 7.66664 20 7.66664L19.9989 4.3335ZM8.33287 9.88874C8.33287 9.59408 8.21581 9.31148 8.00745 9.10311C7.79909 8.89475 7.51649 8.77769 7.22182 8.77769C6.92715 8.77769 6.64455 8.89475 6.43619 9.10311C6.22783 9.31148 6.11077 9.59408 6.11077 9.88874V15.444C6.11077 15.7387 6.22783 16.0213 6.43619 16.2296C6.64455 16.438 6.92715 16.555 7.22182 16.555C7.51649 16.555 7.79909 16.438 8.00745 16.2296C8.21581 16.0213 8.33287 15.7387 8.33287 15.444V9.88874ZM13.8881 9.88874C13.8881 9.59408 13.7711 9.31148 13.5627 9.10311C13.3543 8.89475 13.0717 8.77769 12.7771 8.77769C12.4824 8.77769 12.1998 8.89475 11.9914 9.10311C11.7831 9.31148 11.666 9.59408 11.666 9.88874V15.444C11.666 15.7387 11.7831 16.0213 11.9914 16.2296C12.1998 16.438 12.4824 16.555 12.7771 16.555C13.0717 16.555 13.3543 16.438 13.5627 16.2296C13.7711 16.0213 13.8881 15.7387 13.8881 15.444V9.88874Z" fill="#FF2C2C"/>
<path d="M7.85352 1.41128C7.98018 1.2935 8.25905 1.18907 8.64792 1.11463C9.09419 1.03527 9.5468 0.996964 10.0001 1.00019C10.4889 1.00019 10.9645 1.04019 11.3522 1.11463C11.7411 1.18907 12.0188 1.2935 12.1466 1.41239" fill="#FF2C2C"/>
<path d="M7.85352 1.41128C7.98018 1.2935 8.25905 1.18907 8.64792 1.11463C9.09419 1.03527 9.5468 0.996964 10.0001 1.00019C10.4889 1.00019 10.9645 1.04019 11.3522 1.11463C11.7411 1.18907 12.0188 1.2935 12.1466 1.41239" stroke="#FF2C2C" stroke-width="1.66667" stroke-linecap="round"/>
</svg>
