<svg width="433" height="90" viewBox="0 0 433 90" fill="none" xmlns="http://www.w3.org/2000/svg">
<path d="M9.80664 89.0352C5.85156 89.0352 2.28711 87.2285 0.382812 83.5176C15.8125 83.5176 17.375 29.0254 31.7793 14.7188C30.4121 10.7148 28.9961 7.83398 27.3848 6.85742C40.1777 6.85742 47.0137 7.98047 50.2852 14.9141C55.4609 25.8027 56.0469 58.0293 63.7617 78.0488H55.6074C49.5039 78.0488 45.793 75.6562 43.8398 71.2617C38.8105 59.7383 32.0234 59.0059 26.457 52.8047C26.8965 55.1484 27.2871 57.2969 27.6289 59.2988C28.0195 61.6426 28.2148 63.8887 28.2148 65.9883C28.2148 81.0762 18.1562 89.0352 9.80664 89.0352ZM40.666 59.25C39.2012 50.5098 36.4668 31.0762 32.9023 18.3809C27.1895 25.5586 25.5293 33.7129 25.4805 41.2812C25.4805 52.0234 34.416 53.6836 40.666 59.25ZM106.975 80.7832C105.021 80.7832 102.873 80.4414 100.48 79.8066C103.898 76.6328 107.17 67.4531 107.17 60.3242C107.17 55.0996 105.51 51.2422 100.969 51.1934C94.9141 51.1934 86.4668 59.25 86.4668 72.1895C86.4668 74.0449 86.6133 75.998 87.0039 78.0488L80.2168 78L66.6914 78.0488C69.4746 73.459 70.5488 60.4219 70.5488 46.6523C70.5488 30.2949 69.0352 12.8633 67.1309 7.15039C69.5234 7.39453 71.8672 7.49219 74.1621 7.49219C81.4375 7.49219 88.2734 6.61328 95.3535 6.61328C104.387 6.61328 117.619 10.5684 117.619 20.041C117.619 27.6094 108.146 37.1309 100.285 45.8223C102.043 45.1387 103.85 44.7969 105.559 44.7969C115.275 44.7969 121.721 54.8555 121.721 64.5723C121.721 72.9219 117.131 80.7832 106.975 80.7832ZM84.9531 64.084C88.2246 44.4551 100.334 43.6738 100.578 18.5273C100.578 11.5449 98.4785 8.61523 95.8418 8.61523C92.8145 8.61523 89.0547 12.4727 87.0039 18.5762C84.8066 24.9727 84.1719 34.1035 84.1719 43.3809C84.1719 50.5586 84.5625 57.834 84.9531 64.084ZM161.125 78.9766H135.637C144.768 64.7188 130.949 18.4297 161.223 18.4297C170.695 18.4297 174.357 15.1094 174.357 11.9355C174.357 9.05469 171.281 6.32031 166.838 6.32031C162.98 6.32031 158.049 8.32227 153.068 14.084C146.33 21.9453 138.811 25.4121 132.707 25.4121C125.822 25.4121 120.793 21.0176 120.793 13.498C120.793 10.4707 121.623 6.95508 123.43 3C124.797 7.00391 127.873 8.32227 131.975 8.32227C139.494 8.32227 151.652 3.58594 162.346 3.58594C174.406 3.58594 179.582 8.17578 179.582 12.9121C179.582 17.9902 173.576 23.2637 163.664 23.2637C156.975 23.2637 154.68 30.6855 154.68 40.5C154.68 52.6582 158.195 68.5762 161.125 78.9766ZM204.436 78.0488H181.535L182.463 74.6797C184.758 68.3809 186.076 56.9551 186.125 45.1875V45.1387C186.174 45.1387 186.174 44.4062 186.174 41.0371C186.174 34.1035 184.562 16.0371 182.316 6.95508C191.789 6.95508 204.045 10.1777 214.885 10.1777C222.111 10.1777 228.703 8.76172 233.488 4.07422C234.758 5.97852 235.295 8.12695 235.295 10.2754C235.295 17.502 228.752 24.9238 218.596 24.9238H217.521C209.318 24.5332 203.264 13.0098 200.48 13.0098C199.357 13.0098 198.82 14.8164 198.82 19.748V25.2168C198.82 29.3184 198.82 34.4941 198.967 39.9141C200.773 37.0332 204.924 36.3008 207.951 36.3008C212.736 36.3008 217.766 38.6445 222.502 38.6445C225.48 38.6445 228.361 37.7168 230.949 34.6895C231.096 36.0078 231.145 37.2285 231.145 38.3516C231.145 46.0664 228.068 49.4844 223.186 49.4844C219.182 49.4844 214.006 47.1895 208.391 43.1367C206.145 41.5254 204.143 40.4023 202.58 40.4023C200.822 40.4023 199.602 41.7207 199.113 45.0898C199.602 58.8594 200.822 73.3613 204.436 78.0488ZM276.604 80.6855C267.912 80.6855 256.535 77.4141 244.914 77.4141C242.424 77.4141 239.934 77.5605 237.492 77.9023C239.543 73.8496 241.154 53.5859 241.154 35.5684C241.154 22.4824 240.324 10.5684 238.225 6.85742H262.346C255.852 14.2793 253.068 27.4141 253.068 40.207C253.068 53.4883 256.096 66.4766 261.174 72.4336C264.396 76.1934 268.254 77.7559 271.721 77.7559C277.092 77.7559 281.584 74.0938 281.584 69.0645C281.584 65.8418 279.729 62.0332 274.943 58.3223C271.721 55.7832 268.303 54.0254 264.738 51.291C260.1 47.5801 257.951 43.2832 257.951 39.377C257.951 33.1758 263.322 28.0488 272.551 28.0488C274.943 28.0488 277.629 28.3906 280.559 29.1719C277.189 33.4199 275.92 37.4727 275.92 41.3301C275.92 53.9766 290.08 64.2793 290.08 72.2383C290.08 74.4844 288.957 76.5352 286.174 78.3906C283.586 80.0508 280.314 80.6855 276.604 80.6855ZM319.377 78.1953C302.531 78.1953 285.734 66.623 285.734 43.5273C285.734 32.8828 290.031 20.9688 298.234 16.5742C301.164 15.0117 303.947 14.3281 306.633 14.3281C316.154 14.3281 323.332 23.1172 323.332 31.4668C323.332 37.7656 319.182 43.8203 308.732 45.5781C309.123 44.2598 309.27 42.8438 309.27 41.3789C309.27 32.248 302.971 20.8223 299.504 20.8223C298.234 20.8223 297.355 22.4336 297.355 26.3398C297.355 28.4883 297.6 31.3691 298.234 35.0801C301.262 52.707 312.883 73.6055 327.678 73.6055C335.197 73.6055 341.154 67.502 341.154 55.8809C341.154 51.6328 340.373 46.6523 338.518 40.9395C333.83 26.291 324.064 12.4727 308.146 12.4727C306.242 12.4727 304.24 12.668 302.189 13.1074C307.951 7.78516 314.494 5.44141 320.891 5.44141C337.346 5.44141 352.971 21.0664 352.971 43.5273C352.971 66.623 336.174 78.1953 319.377 78.1953ZM402.971 78.1953C397.795 78.1953 393.303 74.1426 391.887 64.4258C388.762 73.5078 382.609 78.0977 376.506 78.0977C370.549 78.0977 364.592 73.6543 361.613 64.7188C355.363 46.1641 358.635 31.8086 347.16 7.15039C361.125 7.3457 367.521 6.36914 371.037 23.3613C372.209 28.8789 373.43 44.1133 376.799 57.4434C378.605 64.7676 380.754 67.7949 382.756 67.7949C386.467 67.7949 389.738 57.4922 389.738 44.748C389.738 31.8574 386.418 16.4766 376.799 6.71094C380.07 4.95312 383 4.17188 385.686 4.17188C398.088 4.17188 403.947 21.2129 406.145 33.0781C407.805 41.5742 408 51.3887 408.146 61.4961C408.195 67.1602 409.611 69.4062 411.418 69.4062C413.566 69.4062 416.301 66.0859 417.766 61.252C419.475 55.9785 420.305 48.7031 420.305 41.1836C420.305 24.1914 416.154 5.83203 408.488 5.83203C407.756 5.83203 407.023 6.02734 406.193 6.36914C408.537 2.16992 412.932 0.119141 417.521 0.119141C424.211 0.119141 432.707 4.70898 432.707 15.5488C432.707 24.7773 427.629 47.873 421.135 62.5703C417.033 71.8477 409.465 78.1953 402.971 78.1953Z" fill="white"/>
</svg>
