<svg width="33" height="420" viewBox="0 0 33 420" fill="none" xmlns="http://www.w3.org/2000/svg">
<path d="M7.08243 92.238H26.4959C27.5963 91.1027 29.0918 89.2965 30.3757 86.7163C31.3492 84.7897 33.2962 80.2312 32.9576 67.7771C32.8165 62.1694 32.5625 54.3254 29.9384 44.6408C28.0478 37.6397 26.9191 37.0892 24.9721 28.8668C22.8417 19.8187 22.9546 15.2258 23.0251 13.6089C23.2791 8.08711 24.5912 3.71786 25.607 0.982788C24.2244 2.23852 22.221 4.16511 20.02 6.76257C8.81779 20.0251 4.96614 35.5411 2.99094 43.8667C1.24147 51.2463 -0.592646 59.2279 0.183326 69.893C0.64891 76.3264 1.90457 81.5557 2.99094 85.1509L7.08243 92.2552V92.238Z" fill="#333333"/>
<path d="M25.9599 96.6073H7.05438C5.49599 96.6073 4.23267 98.1476 4.23267 100.048V416.56C4.23267 418.46 5.49599 420 7.05438 420H25.9599C27.5183 420 28.7816 418.46 28.7816 416.56V100.048C28.7816 98.1476 27.5183 96.6073 25.9599 96.6073Z" fill="#141414"/>
</svg>
