<svg width="33" height="421" viewBox="0 0 33 421" fill="none" xmlns="http://www.w3.org/2000/svg">
<path d="M7.08243 92.4558H26.4959C27.5963 91.3178 29.0918 89.5073 30.3757 86.9209C31.3492 84.9897 33.2962 80.4203 32.9576 67.9366C32.8165 62.3154 32.5626 54.4527 29.9384 44.745C28.0478 37.7272 26.9191 37.1754 24.9721 28.9334C22.8417 19.8637 22.9546 15.2598 23.0251 13.639C23.2791 8.10406 24.5912 3.72439 25.607 0.982788C24.2244 2.24151 22.221 4.17271 20.02 6.77637C8.81779 20.0706 4.96614 35.6236 2.99094 43.9691C1.24147 51.3662 -0.592646 59.3669 0.183326 70.0574C0.64891 76.5062 1.90457 81.748 2.99094 85.3518L7.08243 92.4731V92.4558Z" fill="url(#paint0_linear_870_2122)"/>
<path d="M25.9599 96.8354H7.05438C5.49599 96.8354 4.23267 98.3794 4.23267 100.284V417.551C4.23267 419.456 5.49599 421 7.05438 421H25.9599C27.5183 421 28.7816 419.456 28.7816 417.551V100.284C28.7816 98.3794 27.5183 96.8354 25.9599 96.8354Z" fill="#141414"/>
<defs>
<linearGradient id="paint0_linear_870_2122" x1="27" y1="13.0287" x2="-0.118339" y2="103.208" gradientUnits="userSpaceOnUse">
<stop stop-color="#F94E9B"/>
<stop offset="1" stop-color="#910BEA"/>
</linearGradient>
</defs>
</svg>
