<svg width="25" height="371" viewBox="0 0 25 371" fill="none" xmlns="http://www.w3.org/2000/svg">
<path d="M22.1028 60.595H2.88302C1.29873 60.595 0.0144043 62.0735 0.0144043 63.8972V367.698C0.0144043 369.522 1.29873 371 2.88302 371H22.1028C23.687 371 24.9714 369.522 24.9714 367.698V63.8972C24.9714 62.0735 23.687 60.595 22.1028 60.595Z" fill="#141414"/>
<path d="M5.73723 0H19.2628C22.4182 0 25 2.95545 25 6.60436V54.7667C25 55.6748 24.3546 56.4178 23.5657 56.4178H1.43431C0.645439 56.4178 0 55.6748 0 54.7667V6.60436C0 2.95545 2.56741 0 5.73723 0Z" fill="#333333"/>
</svg>
