<svg width="19" height="20" viewBox="0 0 19 20" fill="none" xmlns="http://www.w3.org/2000/svg">
<path d="M7.24022 2V6H10.8603V2H7.24022ZM12.6704 2V6H16.2905V2H12.6704ZM12.6704 8V12H16.2905V8H12.6704ZM12.6704 14V18H16.2905V14H12.6704ZM10.8603 18V14H7.24022V18H10.8603ZM5.43017 18V14H1.81006V18H5.43017ZM5.43017 12V8H1.81006V12H5.43017ZM5.43017 6V2H1.81006V6H5.43017ZM7.24022 12H10.8603V8H7.24022V12ZM1.81006 0H16.2905C16.7706 0 17.231 0.210714 17.5704 0.585786C17.9099 0.960859 18.1006 1.46957 18.1006 2V18C18.1006 18.5304 17.9099 19.0391 17.5704 19.4142C17.231 19.7893 16.7706 20 16.2905 20H1.81006C0.832626 20 0 19.1 0 18V2C0 1.46957 0.190702 0.960859 0.530153 0.585786C0.869604 0.210714 1.33 0 1.81006 0Z" fill="#FFFFFC"/>
</svg>
