<svg width="34" height="26" viewBox="0 0 34 26" fill="none" xmlns="http://www.w3.org/2000/svg">
<g id="Layer 2">
<g id="menu">
<path id="Vector" d="M31.3312 10.6045H1.74573C0.781588 10.6045 0 11.5066 0 12.6193V12.8314C0 13.9441 0.781588 14.8462 1.74573 14.8462H31.3312C32.2953 14.8462 33.0769 13.9441 33.0769 12.8314V12.6193C33.0769 11.5066 32.2953 10.6045 31.3312 10.6045Z" fill="#FFFFFC"/>
<path id="Vector_2" d="M31.3312 21.2085H1.74573C0.781588 21.2085 0 22.1106 0 23.2233V23.4354C0 24.5481 0.781588 25.4502 1.74573 25.4502H31.3312C32.2953 25.4502 33.0769 24.5481 33.0769 23.4354V23.2233C33.0769 22.1106 32.2953 21.2085 31.3312 21.2085Z" fill="#FFFFFC"/>
<path id="Vector_3" d="M31.3312 0H1.74573C0.781588 0 0 0.902061 0 2.01481V2.2269C0 3.33965 0.781588 4.24171 1.74573 4.24171H31.3312C32.2953 4.24171 33.0769 3.33965 33.0769 2.2269V2.01481C33.0769 0.902061 32.2953 0 31.3312 0Z" fill="#FFFFFC"/>
</g>
</g>
</svg>
