<svg width="20" height="20" viewBox="0 0 20 20" fill="none" xmlns="http://www.w3.org/2000/svg">
<path d="M18.3339 11.0872L11.6948 18.4242C11.2547 18.9104 10.6578 19.1835 10.0354 19.1835C9.41299 19.1835 8.81608 18.9104 8.37592 18.4242L1.7369 11.0885C1.18809 10.4874 0.752141 9.77239 0.454077 8.98462C0.156014 8.19685 0.00170621 7.35178 1.40698e-05 6.49794C-0.00167807 5.64409 0.149279 4.79829 0.444217 4.00908C0.739156 3.21987 1.17227 2.5028 1.71869 1.89904C2.26511 1.29528 2.91407 0.816721 3.62833 0.490832C4.34259 0.164943 5.10806 -0.00185417 5.88081 1.55463e-05C6.65357 0.00188526 7.41838 0.172385 8.13133 0.501727C8.84429 0.831069 9.49135 1.31277 10.0354 1.91917C11.1404 0.728584 12.6254 0.0669757 14.1688 0.0776608C15.7122 0.088346 17.1896 0.770464 18.281 1.97625C19.3724 3.18204 19.99 4.8144 19.9999 6.51973C20.0098 8.22506 19.4112 9.86603 18.3339 11.0872Z" fill="#FFFFFC"/>
</svg>
