<?xml version="1.0" encoding="UTF-8"?>
<svg id="Layer_2" data-name="Layer 2" xmlns="http://www.w3.org/2000/svg" xmlns:xlink="http://www.w3.org/1999/xlink" viewBox="0 0 280.17 57.74">
  <defs>
    <style>
      .cls-1 {
        font-family: Lostar, Lostar;
        font-size: 50px;
      }

      .cls-1, .cls-2 {
        fill: #fff;
      }

      .cls-3 {
        fill: url(#linear-gradient);
      }

      .cls-3, .cls-2 {
        stroke-width: 0px;
      }

      .cls-4 {
        letter-spacing: -.06em;
      }

      .cls-5 {
        letter-spacing: -.03em;
      }
    </style>
    <linearGradient id="linear-gradient" x1="0" y1="26.22" x2="60.7" y2="26.22" gradientUnits="userSpaceOnUse">
      <stop offset=".38" stop-color="#ec599b"/>
      <stop offset="1" stop-color="#910bea"/>
    </linearGradient>
  </defs>
  <g id="Logo">
    <g id="Gradient">
      <text class="cls-1" transform="translate(62.95 43.31)"><tspan x="0" y="0">a</tspan><tspan class="cls-5" x="29.35" y="0">r</tspan><tspan x="56.37" y="0">tf</tspan><tspan class="cls-4" x="114.72" y="0">lo</tspan><tspan x="169.41" y="0">w</tspan></text>
      <g id="Logo-2" data-name="Logo">
        <path class="cls-3" d="m55.46,13.12C34.26-2.03,16.47,48.62,0,22.34c.23,11.62,11.89,19.91,21.83,17.37,6.4-1.14,10.2-7.41,15.75-10.47,12.27-9.03,20.99,4.66,7.73,12.96,11.61-.89,22-20.87,10.15-29.09Z"/>
        <g>
          <path class="cls-2" d="m34.9,34.84c-.29.06-.68.04-1.15-.06-1.26-.3-2.59-1.3-3.68-2.79-1.49-2.03-2.92-3.96-4.29-5.8-1.01-1.36-1.98-2.68-2.92-3.95-1.04-1.42-2.05-2.77-3.03-4.08-2.31-3.11-4.42-5.95-6.29-8.63-1.68-2.41-3.05-4.79-4.46-6.87-.23-.34-.34-.81-.38-1.22-.03-.3,0-.67.28-.87.26-.18.6-.11.87,0,1.26.51,2.66,2.4,3.88,3.83,2.76,3.03,4.33,4.87,7.24,8.45,1.61,1.98,3.31,4.11,5.12,6.38,2.21,2.78,4.69,5.88,7.37,9.17.97,1.19,1.59,2.79,1.89,4.94.19,1.37-.08,1.43-.46,1.51Z"/>
          <path class="cls-2" d="m43.9,41.98c-.62-.34-1.24-.55-1.71-.95-.76-.64-1.1-1.51-1.08-2.55.02-.99,0-2.01-.2-2.98-.4-1.88-1.82-2.55-3.59-1.79-.16.07-.35.24-.4.4-.45,1.63-.98,2.08-2.66,2.25-.04,0-.07.02-.17.05-.17,1.33.15,2.51,1.08,3.5.93.99,2.13,1.52,3.41,1.86,1.52.41,3.06.55,4.63.35.23-.03.46-.09.7-.14Z"/>
        </g>
      </g>
    </g>
  </g>
</svg>