<svg width="25" height="472" viewBox="0 0 25 472" fill="none" xmlns="http://www.w3.org/2000/svg">
<path d="M0 71H24.9818C24.9387 69.2819 25.1828 64.1114 24.6372 62.5897C22.0385 46.7834 19.4255 30.9936 16.8268 15.1874C16.2812 11.8821 15.6926 8.59326 15.2619 5.27166C15.1183 4.19173 14.9604 3.09544 14.5727 2.09732C14.2999 1.4101 13.3667 -0.487957 12.4909 0.117457C10.5096 1.19739 10.4234 4.92805 10.0501 7.07154L7.03511 24.2849C4.69486 37.6531 2.34025 51.0213 0 64.3895V71Z" fill="url(#paint0_linear_870_2119)"/>
<path d="M22.1264 76.2458H2.87356C1.28654 76.2458 0 78.1308 0 80.456V467.79C0 470.115 1.28654 472 2.87356 472H22.1264C23.7135 472 25 470.115 25 467.79V80.456C25 78.1308 23.7135 76.2458 22.1264 76.2458Z" fill="black"/>
<defs>
<linearGradient id="paint0_linear_870_2119" x1="12.5" y1="0" x2="12.5" y2="71" gradientUnits="userSpaceOnUse">
<stop stop-color="#F54B9D"/>
<stop offset="1" stop-color="#910BEA"/>
</linearGradient>
</defs>
</svg>
