<svg width="13" height="14" viewBox="0 0 13 14" fill="none" xmlns="http://www.w3.org/2000/svg">
<path d="M10.9478 1.32948L0.609992 11.2259C0.273103 11.5484 0.294123 12.1171 0.656942 12.4961L0.726094 12.5683C1.08891 12.9473 1.65614 12.9931 1.99303 12.6706L12.3308 2.77419C12.6677 2.45169 12.6467 1.88301 12.2838 1.50401L12.2147 1.43177C11.8519 1.05277 11.2846 1.00697 10.9478 1.32948Z" fill="#4CC9F0"/>
<path d="M12.141 11.4774L2.24459 1.13966C1.92209 0.802766 1.3534 0.823787 0.974403 1.18661L0.902168 1.25576C0.523167 1.61858 0.477369 2.1858 0.799875 2.52269L10.6963 12.8605C11.0188 13.1973 11.5875 13.1763 11.9665 12.8135L12.0387 12.7444C12.4177 12.3815 12.4635 11.8143 12.141 11.4774Z" fill="#4CC9F0"/>
</svg>
