<svg width="20" height="20" viewBox="0 0 20 20" fill="none" xmlns="http://www.w3.org/2000/svg">
<g id="iconamoon:notification-off">
<g id="Group">
<path id="Vector" d="M9.16602 18.333H10.8327" stroke="#A6A7B3" stroke-width="2" stroke-linecap="round" stroke-linejoin="round"/>
<path id="Vector_2" d="M9.99935 3.33317C10.4596 3.33317 10.8327 2.96007 10.8327 2.49984C10.8327 2.0396 10.4596 1.6665 9.99935 1.6665C9.53911 1.6665 9.16602 2.0396 9.16602 2.49984C9.16602 2.96007 9.53911 3.33317 9.99935 3.33317Z" stroke="#A6A7B3" stroke-width="2"/>
<path id="Vector_3" d="M4.99967 15.8333V8.33328C4.99967 7.37995 5.26634 6.48828 5.72967 5.72995M4.99967 15.8333H14.9997M4.99967 15.8333H3.33301M14.9997 15.8333V14.9999M14.9997 15.8333H15.833M8.33217 3.61828C9.08645 3.35145 9.89375 3.26953 10.6863 3.3794C11.4788 3.48926 12.2333 3.7877 12.8866 4.24965C13.5398 4.71161 14.0727 5.32358 14.4404 6.03416C14.8081 6.74475 14.9999 7.5332 14.9997 8.33328V10.2858" stroke="#A6A7B3" stroke-width="2" stroke-linecap="round" stroke-linejoin="round"/>
<path id="Vector_4" d="M3.33301 3.33301L16.6663 16.6663" stroke="#A6A7B3" stroke-width="2" stroke-linecap="round"/>
</g>
</g>
</svg>
