<?xml version="1.0" encoding="UTF-8"?>
<svg id="Layer_2" data-name="Layer 2" xmlns="http://www.w3.org/2000/svg" xmlns:xlink="http://www.w3.org/1999/xlink" viewBox="0 0 16 11.25">
  <defs>
    <style>
      .cls-1 {
        fill: url(#linear-gradient);
        stroke-width: 0px;
      }

      .cls-2 {
        fill: #fff;
        stroke: #000;
        stroke-miterlimit: 10;
        stroke-width: .25px;
      }
    </style>
    <linearGradient id="linear-gradient" x1="0" y1="6.91" x2="16" y2="6.91" gradientUnits="userSpaceOnUse">
      <stop offset=".38" stop-color="#ec599b"/>
      <stop offset="1" stop-color="#910bea"/>
    </linearGradient>
  </defs>
  <g id="Favicons">
    <g id="Logo_32px" data-name="Logo 32px">
      <path class="cls-1" d="m14.62,3.46C9.03-.53,4.34,12.82,0,5.89c.06,3.06,3.13,5.25,5.75,4.58,1.69-.3,2.69-1.95,4.15-2.76,3.24-2.38,5.53,1.23,2.04,3.42,3.06-.24,5.8-5.5,2.68-7.67Z"/>
      <g id="Brush">
        <path class="cls-2" d="m9.2,9.19c-.08.01-.18,0-.3-.01-.33-.08-.68-.34-.97-.73-.39-.54-.77-1.04-1.13-1.53-.27-.36-.52-.71-.77-1.04-.27-.37-.54-.73-.8-1.08-.61-.82-1.17-1.57-1.66-2.28-.44-.64-.8-1.26-1.18-1.81-.06-.09-.09-.21-.1-.32,0-.08,0-.18.07-.23.07-.05.16-.03.23,0,.33.14.7.63,1.02,1.01.73.8,1.14,1.28,1.91,2.23.43.52.87,1.08,1.35,1.68.58.73,1.24,1.55,1.94,2.42.26.31.42.74.5,1.3.05.36-.02.38-.12.4Z"/>
        <path class="cls-2" d="m11.57,11.07c-.16-.09-.33-.15-.45-.25-.2-.17-.29-.4-.29-.67,0-.26,0-.53-.05-.78-.11-.5-.48-.67-.95-.47-.04.02-.09.06-.11.11-.12.43-.26.55-.7.59,0,0-.02,0-.05.01-.05.35.04.66.29.92.25.26.56.4.9.49.4.11.81.15,1.22.09.06,0,.12-.02.18-.04Z"/>
      </g>
    </g>
  </g>
</svg>