<svg width="290" height="290" viewBox="0 0 290 290" fill="none" xmlns="http://www.w3.org/2000/svg">
<path d="M217.471 248.5C219.578 251.508 223.736 252.252 226.636 249.998C246.981 234.18 262.333 212.757 270.754 188.301C279.898 161.744 280.4 132.974 272.189 106.115C263.977 79.255 247.473 55.6845 225.041 38.7815C202.61 21.8784 175.404 12.5104 147.321 12.0203C119.239 11.5301 91.7217 19.9428 68.7143 36.0528C45.7069 52.1628 28.3902 75.1428 19.246 101.699C10.1018 128.256 9.59967 157.026 17.8115 183.885C25.3739 208.621 39.9691 230.567 59.7495 247.085C62.5685 249.439 66.7504 248.841 68.9607 245.908V245.908C71.171 242.974 70.5713 238.819 67.7654 236.449C50.2217 221.633 37.2715 202.046 30.5303 179.997C23.1397 155.823 23.5917 129.93 31.8214 106.03C40.0512 82.1286 55.6362 61.4465 76.3429 46.9475C97.0495 32.4486 121.815 24.8771 147.089 25.3182C172.363 25.7594 196.849 34.1905 217.037 49.4033C237.225 64.6161 252.079 85.8295 259.47 110.003C266.86 134.177 266.408 160.07 258.179 183.971C250.672 205.771 237.046 224.894 218.996 239.089C216.109 241.359 215.365 245.491 217.471 248.5V248.5Z" fill="#FFFFFC"/>
<path d="M72.4561 247.38C66.2222 256.178 53.9267 258.344 46.0454 250.986C32.5969 238.429 21.6161 223.386 13.7462 206.623C3.10054 183.949 -1.4895 158.903 0.423423 133.927C2.33634 108.951 10.687 84.8961 24.6615 64.1072C38.6361 43.3182 57.7579 26.5041 80.1635 15.3033C102.569 4.10257 127.494 -1.10276 152.51 0.19461C177.526 1.49198 201.779 9.24779 222.905 22.7062C244.032 36.1647 261.312 54.8667 273.061 76.9897C281.746 93.3442 287.19 111.156 289.164 129.449C290.32 140.169 281.209 148.705 270.43 148.411V148.411C259.652 148.118 251.335 139.075 249.649 128.426C247.822 116.893 244.094 105.696 238.575 95.3042C229.99 79.1387 217.364 65.4729 201.926 55.6387C186.489 45.8045 168.767 40.1372 150.488 39.1892C132.208 38.2412 113.995 42.0448 97.6233 50.2293C81.2513 58.4138 67.2788 70.7001 57.0675 85.8908C46.8561 101.081 40.7542 118.658 39.3564 136.909C37.9586 155.159 41.3126 173.46 49.0915 190.029C54.092 200.68 60.8114 210.381 68.9405 218.763C76.4472 226.503 78.69 238.583 72.4561 247.38V247.38Z" fill="url(#paint0_linear_1514_2096)"/>
<path d="M134.355 131.719V137.236H108.745L108.403 132.964L123.223 109.453H128.813L122.759 119.585L115.386 131.719H134.355ZM130.327 109.453V145H123.296V109.453H130.327ZM153.643 109.453L140.605 148.052H135.381L148.418 109.453H153.643ZM163.335 128.813L157.72 127.471L159.746 109.453H179.717V115.142H165.532L164.653 123.027C165.125 122.751 165.841 122.458 166.802 122.148C167.762 121.823 168.836 121.66 170.024 121.66C171.75 121.66 173.28 121.929 174.614 122.466C175.949 123.003 177.08 123.784 178.008 124.81C178.952 125.835 179.668 127.088 180.156 128.569C180.645 130.05 180.889 131.727 180.889 133.599C180.889 135.177 180.645 136.683 180.156 138.115C179.668 139.531 178.927 140.801 177.935 141.924C176.942 143.031 175.697 143.901 174.199 144.536C172.702 145.171 170.928 145.488 168.877 145.488C167.347 145.488 165.866 145.26 164.434 144.805C163.018 144.349 161.74 143.674 160.601 142.778C159.478 141.883 158.574 140.801 157.891 139.531C157.223 138.245 156.873 136.781 156.841 135.137H163.823C163.921 136.146 164.181 137.017 164.604 137.749C165.044 138.465 165.622 139.019 166.338 139.409C167.054 139.8 167.892 139.995 168.853 139.995C169.748 139.995 170.513 139.824 171.147 139.482C171.782 139.141 172.295 138.669 172.686 138.066C173.076 137.448 173.361 136.732 173.54 135.918C173.735 135.088 173.833 134.193 173.833 133.232C173.833 132.272 173.719 131.401 173.491 130.62C173.263 129.839 172.913 129.163 172.441 128.594C171.969 128.024 171.367 127.585 170.635 127.275C169.919 126.966 169.08 126.812 168.12 126.812C166.818 126.812 165.809 127.015 165.093 127.422C164.393 127.829 163.807 128.293 163.335 128.813Z" fill="#4CC9F0"/>
<path d="M119.046 184.616L123.294 166.672H125.667L126.209 169.66L121.683 188H119.134L119.046 184.616ZM116.863 166.672L120.379 184.616L120.086 188H117.244L112.513 166.672H116.863ZM129.944 184.543L133.416 166.672H137.767L133.05 188H130.208L129.944 184.543ZM127 166.672L131.277 184.689L131.16 188H128.611L124.056 169.646L124.642 166.672H127ZM138.748 180.236V179.929C138.748 178.767 138.914 177.697 139.246 176.721C139.578 175.734 140.062 174.88 140.696 174.157C141.331 173.435 142.112 172.873 143.04 172.473C143.968 172.062 145.032 171.857 146.233 171.857C147.435 171.857 148.504 172.062 149.441 172.473C150.379 172.873 151.165 173.435 151.8 174.157C152.444 174.88 152.933 175.734 153.265 176.721C153.597 177.697 153.763 178.767 153.763 179.929V180.236C153.763 181.389 153.597 182.458 153.265 183.444C152.933 184.421 152.444 185.275 151.8 186.008C151.165 186.73 150.384 187.292 149.456 187.692C148.528 188.093 147.464 188.293 146.263 188.293C145.062 188.293 143.992 188.093 143.055 187.692C142.127 187.292 141.341 186.73 140.696 186.008C140.062 185.275 139.578 184.421 139.246 183.444C138.914 182.458 138.748 181.389 138.748 180.236ZM142.967 179.929V180.236C142.967 180.9 143.025 181.521 143.143 182.097C143.26 182.673 143.445 183.181 143.699 183.62C143.963 184.05 144.305 184.387 144.725 184.631C145.145 184.875 145.657 184.997 146.263 184.997C146.849 184.997 147.352 184.875 147.771 184.631C148.191 184.387 148.528 184.05 148.782 183.62C149.036 183.181 149.222 182.673 149.339 182.097C149.466 181.521 149.529 180.9 149.529 180.236V179.929C149.529 179.284 149.466 178.679 149.339 178.112C149.222 177.536 149.031 177.028 148.768 176.589C148.514 176.14 148.177 175.788 147.757 175.534C147.337 175.28 146.829 175.153 146.233 175.153C145.638 175.153 145.13 175.28 144.71 175.534C144.3 175.788 143.963 176.14 143.699 176.589C143.445 177.028 143.26 177.536 143.143 178.112C143.025 178.679 142.967 179.284 142.967 179.929ZM160.882 183.898L164.178 172.15H166.858L165.994 176.765L162.698 188H160.457L160.882 183.898ZM159.212 172.15L161.57 183.884L161.79 188H159.153L155.14 172.15H159.212ZM169.876 183.693L172.176 172.15H176.263L172.249 188H169.627L169.876 183.693ZM167.225 172.15L170.506 183.811L170.96 188H168.704L165.408 176.779L164.573 172.15H167.225Z" fill="#FFFFFC"/>
<defs>
<linearGradient id="paint0_linear_1514_2096" x1="0" y1="145" x2="290" y2="145" gradientUnits="userSpaceOnUse">
<stop stop-color="#F94E9B"/>
<stop offset="1" stop-color="#910BEA"/>
</linearGradient>
</defs>
</svg>
