<svg width="290" height="290" viewBox="0 0 290 290" fill="none" xmlns="http://www.w3.org/2000/svg">
<path d="M217.471 248.5C219.578 251.508 223.736 252.252 226.636 249.998C246.981 234.18 262.333 212.757 270.754 188.301C279.898 161.744 280.4 132.974 272.189 106.115C263.977 79.255 247.473 55.6845 225.041 38.7815C202.61 21.8784 175.404 12.5104 147.321 12.0203C119.239 11.5301 91.7217 19.9428 68.7143 36.0528C45.7069 52.1628 28.3902 75.1428 19.246 101.699C10.1018 128.256 9.59967 157.026 17.8115 183.885C25.3739 208.621 39.9691 230.567 59.7495 247.085C62.5685 249.439 66.7504 248.841 68.9607 245.908V245.908C71.171 242.974 70.5713 238.819 67.7654 236.449C50.2217 221.633 37.2715 202.046 30.5303 179.997C23.1397 155.823 23.5917 129.93 31.8214 106.03C40.0512 82.1286 55.6362 61.4465 76.3429 46.9475C97.0495 32.4486 121.815 24.8771 147.089 25.3182C172.363 25.7594 196.849 34.1905 217.037 49.4033C237.225 64.6161 252.079 85.8295 259.47 110.003C266.86 134.177 266.408 160.07 258.179 183.971C250.672 205.771 237.046 224.894 218.996 239.089C216.109 241.359 215.365 245.491 217.471 248.5V248.5Z" fill="#FFFFFC"/>
<path d="M72.4561 247.38C66.2222 256.178 53.9268 258.344 46.0454 250.986C34.7348 240.426 25.1561 228.093 17.706 214.435C7.12975 195.046 1.12254 173.497 0.142751 151.433C-0.837039 129.368 3.23649 107.372 12.0525 87.1212C20.8685 66.8709 34.1939 48.9021 51.0119 34.586C67.83 20.2699 87.6962 9.98494 109.094 4.51588C130.493 -0.953193 152.858 -1.46179 174.482 3.0289C196.107 7.51959 216.42 16.8909 233.872 30.4276C246.165 39.9633 256.809 51.3884 265.428 64.2402C271.433 73.1955 267.331 84.9873 257.651 89.7363V89.7363C247.971 94.4852 236.405 90.3423 229.963 81.6959C224.259 74.0412 217.529 67.1682 209.939 61.2808C197.187 51.3894 182.344 44.5417 166.543 41.2603C150.742 37.9789 134.399 38.3505 118.763 42.3468C103.127 46.3431 88.6111 53.8585 76.322 64.3194C64.0329 74.7803 54.2958 87.9103 47.8539 102.707C41.412 117.504 38.4354 133.578 39.1513 149.7C39.8673 165.823 44.2568 181.569 51.985 195.737C56.5847 204.17 62.2949 211.91 68.9406 218.763C76.4473 226.504 78.69 238.583 72.4561 247.38V247.38Z" fill="url(#paint0_linear_1514_2065)"/>
<path d="M116.655 124.175H120.415C121.619 124.175 122.612 123.971 123.394 123.564C124.175 123.141 124.753 122.555 125.127 121.807C125.518 121.042 125.713 120.155 125.713 119.146C125.713 118.234 125.534 117.428 125.176 116.729C124.834 116.012 124.305 115.459 123.589 115.068C122.873 114.661 121.969 114.458 120.879 114.458C120.016 114.458 119.219 114.629 118.486 114.971C117.754 115.312 117.168 115.793 116.729 116.411C116.289 117.03 116.069 117.778 116.069 118.657H109.014C109.014 116.704 109.535 115.003 110.576 113.555C111.634 112.106 113.05 110.975 114.824 110.161C116.598 109.347 118.551 108.94 120.684 108.94C123.092 108.94 125.2 109.331 127.007 110.112C128.813 110.877 130.221 112.008 131.23 113.506C132.24 115.003 132.744 116.859 132.744 119.072C132.744 120.195 132.484 121.286 131.963 122.344C131.442 123.385 130.693 124.329 129.717 125.176C128.757 126.006 127.585 126.673 126.201 127.178C124.818 127.666 123.263 127.91 121.538 127.91H116.655V124.175ZM116.655 129.521V125.884H121.538C123.475 125.884 125.176 126.104 126.641 126.543C128.105 126.982 129.334 127.617 130.327 128.447C131.32 129.261 132.069 130.229 132.573 131.353C133.078 132.459 133.33 133.688 133.33 135.039C133.33 136.699 133.013 138.18 132.378 139.482C131.743 140.768 130.848 141.859 129.692 142.754C128.553 143.649 127.218 144.333 125.688 144.805C124.159 145.26 122.49 145.488 120.684 145.488C119.186 145.488 117.713 145.285 116.265 144.878C114.832 144.455 113.53 143.828 112.358 142.998C111.203 142.152 110.275 141.094 109.575 139.824C108.892 138.538 108.55 137.017 108.55 135.259H115.605C115.605 136.17 115.833 136.984 116.289 137.7C116.745 138.416 117.371 138.978 118.169 139.385C118.983 139.792 119.886 139.995 120.879 139.995C122.002 139.995 122.962 139.792 123.76 139.385C124.574 138.962 125.192 138.376 125.615 137.627C126.055 136.862 126.274 135.975 126.274 134.966C126.274 133.664 126.038 132.622 125.566 131.841C125.094 131.043 124.419 130.457 123.54 130.083C122.661 129.709 121.619 129.521 120.415 129.521H116.655ZM153.643 109.453L140.605 148.052H135.381L148.418 109.453H153.643ZM163.335 128.813L157.72 127.471L159.746 109.453H179.717V115.142H165.532L164.653 123.027C165.125 122.751 165.841 122.458 166.802 122.148C167.762 121.823 168.836 121.66 170.024 121.66C171.75 121.66 173.28 121.929 174.614 122.466C175.949 123.003 177.08 123.784 178.008 124.81C178.952 125.835 179.668 127.088 180.156 128.569C180.645 130.05 180.889 131.727 180.889 133.599C180.889 135.177 180.645 136.683 180.156 138.115C179.668 139.531 178.927 140.801 177.935 141.924C176.942 143.031 175.697 143.901 174.199 144.536C172.702 145.171 170.928 145.488 168.877 145.488C167.347 145.488 165.866 145.26 164.434 144.805C163.018 144.349 161.74 143.674 160.601 142.778C159.478 141.883 158.574 140.801 157.891 139.531C157.223 138.245 156.873 136.781 156.841 135.137H163.823C163.921 136.146 164.181 137.017 164.604 137.749C165.044 138.465 165.622 139.019 166.338 139.409C167.054 139.8 167.892 139.995 168.853 139.995C169.748 139.995 170.513 139.824 171.147 139.482C171.782 139.141 172.295 138.669 172.686 138.066C173.076 137.448 173.361 136.732 173.54 135.918C173.735 135.088 173.833 134.193 173.833 133.232C173.833 132.272 173.719 131.401 173.491 130.62C173.263 129.839 172.913 129.163 172.441 128.594C171.969 128.024 171.367 127.585 170.635 127.275C169.919 126.966 169.08 126.812 168.12 126.812C166.818 126.812 165.809 127.015 165.093 127.422C164.393 127.829 163.807 128.293 163.335 128.813Z" fill="#4CC9F0"/>
<path d="M126.809 176.853V185.305C126.477 185.705 125.964 186.14 125.271 186.608C124.577 187.067 123.684 187.463 122.59 187.795C121.496 188.127 120.173 188.293 118.62 188.293C117.243 188.293 115.988 188.068 114.855 187.619C113.723 187.16 112.746 186.491 111.926 185.612C111.115 184.733 110.49 183.659 110.051 182.39C109.611 181.11 109.392 179.65 109.392 178.01V176.677C109.392 175.036 109.602 173.576 110.021 172.297C110.451 171.018 111.062 169.938 111.853 169.06C112.644 168.181 113.586 167.512 114.68 167.053C115.773 166.594 116.989 166.364 118.327 166.364C120.183 166.364 121.706 166.667 122.897 167.272C124.089 167.868 124.997 168.698 125.622 169.763C126.257 170.817 126.647 172.028 126.794 173.396H122.531C122.424 172.673 122.219 172.043 121.916 171.506C121.613 170.969 121.179 170.549 120.612 170.246C120.056 169.943 119.333 169.792 118.444 169.792C117.712 169.792 117.058 169.943 116.481 170.246C115.915 170.539 115.437 170.974 115.046 171.55C114.655 172.126 114.357 172.839 114.152 173.688C113.947 174.538 113.845 175.524 113.845 176.647V178.01C113.845 179.123 113.952 180.109 114.167 180.969C114.382 181.818 114.699 182.536 115.119 183.122C115.549 183.698 116.076 184.133 116.701 184.426C117.326 184.719 118.054 184.865 118.884 184.865C119.577 184.865 120.153 184.807 120.612 184.689C121.081 184.572 121.457 184.431 121.74 184.265C122.033 184.089 122.258 183.923 122.414 183.767V179.987H118.4V176.853H126.809ZM134.309 175.607V188H130.09V172.15H134.06L134.309 175.607ZM139.084 172.048L139.011 175.959C138.806 175.93 138.557 175.905 138.264 175.886C137.98 175.856 137.722 175.842 137.487 175.842C136.892 175.842 136.374 175.92 135.935 176.076C135.505 176.223 135.144 176.442 134.851 176.735C134.567 177.028 134.353 177.385 134.206 177.805C134.069 178.225 133.991 178.703 133.972 179.24L133.122 178.977C133.122 177.951 133.225 177.009 133.43 176.149C133.635 175.28 133.933 174.523 134.323 173.879C134.724 173.234 135.212 172.736 135.788 172.385C136.364 172.033 137.023 171.857 137.766 171.857C138 171.857 138.239 171.877 138.483 171.916C138.728 171.945 138.928 171.989 139.084 172.048ZM148.078 188.293C146.848 188.293 145.744 188.098 144.768 187.707C143.791 187.307 142.961 186.755 142.277 186.052C141.604 185.349 141.086 184.533 140.725 183.605C140.363 182.668 140.183 181.672 140.183 180.617V180.031C140.183 178.83 140.354 177.731 140.695 176.735C141.037 175.739 141.525 174.875 142.16 174.143C142.805 173.41 143.586 172.849 144.504 172.458C145.422 172.058 146.457 171.857 147.609 171.857C148.732 171.857 149.729 172.043 150.598 172.414C151.467 172.785 152.194 173.312 152.78 173.996C153.376 174.68 153.825 175.5 154.128 176.457C154.431 177.404 154.582 178.459 154.582 179.621V181.379H141.984V178.566H150.437V178.244C150.437 177.658 150.329 177.136 150.114 176.677C149.909 176.208 149.597 175.837 149.177 175.563C148.757 175.29 148.22 175.153 147.565 175.153C147.009 175.153 146.53 175.275 146.13 175.52C145.729 175.764 145.402 176.105 145.148 176.545C144.904 176.984 144.719 177.502 144.592 178.098C144.475 178.684 144.416 179.328 144.416 180.031V180.617C144.416 181.252 144.504 181.838 144.68 182.375C144.865 182.912 145.124 183.376 145.456 183.767C145.798 184.157 146.208 184.46 146.687 184.675C147.175 184.89 147.727 184.997 148.342 184.997C149.104 184.997 149.812 184.851 150.466 184.558C151.13 184.255 151.701 183.801 152.18 183.195L154.23 185.422C153.898 185.9 153.444 186.359 152.868 186.799C152.302 187.238 151.618 187.6 150.817 187.883C150.017 188.156 149.104 188.293 148.078 188.293ZM165.539 184.426V177.365C165.539 176.857 165.456 176.423 165.29 176.062C165.124 175.69 164.865 175.402 164.514 175.197C164.172 174.992 163.728 174.89 163.181 174.89C162.712 174.89 162.307 174.973 161.965 175.139C161.623 175.295 161.359 175.524 161.174 175.827C160.988 176.12 160.896 176.467 160.896 176.867H156.677C156.677 176.193 156.833 175.554 157.146 174.948C157.458 174.343 157.912 173.811 158.508 173.352C159.104 172.883 159.812 172.517 160.632 172.253C161.462 171.989 162.39 171.857 163.415 171.857C164.646 171.857 165.739 172.062 166.696 172.473C167.653 172.883 168.405 173.498 168.952 174.318C169.509 175.139 169.787 176.164 169.787 177.395V184.177C169.787 185.046 169.841 185.759 169.948 186.315C170.056 186.862 170.212 187.341 170.417 187.751V188H166.154C165.949 187.57 165.793 187.033 165.686 186.389C165.588 185.734 165.539 185.08 165.539 184.426ZM166.096 178.347L166.125 180.734H163.767C163.21 180.734 162.727 180.798 162.316 180.925C161.906 181.052 161.569 181.232 161.306 181.467C161.042 181.691 160.847 181.955 160.72 182.258C160.603 182.561 160.544 182.893 160.544 183.254C160.544 183.615 160.627 183.942 160.793 184.235C160.959 184.519 161.198 184.743 161.511 184.909C161.823 185.065 162.189 185.144 162.609 185.144C163.244 185.144 163.796 185.017 164.265 184.763C164.733 184.509 165.095 184.196 165.349 183.825C165.612 183.454 165.749 183.103 165.759 182.771L166.872 184.558C166.716 184.958 166.501 185.373 166.228 185.803C165.964 186.232 165.627 186.638 165.217 187.019C164.807 187.39 164.313 187.697 163.737 187.941C163.161 188.176 162.478 188.293 161.687 188.293C160.681 188.293 159.768 188.093 158.947 187.692C158.137 187.282 157.492 186.721 157.014 186.008C156.545 185.285 156.311 184.465 156.311 183.547C156.311 182.717 156.467 181.979 156.779 181.335C157.092 180.69 157.551 180.148 158.156 179.709C158.771 179.26 159.538 178.923 160.456 178.698C161.374 178.464 162.438 178.347 163.649 178.347H166.096ZM180.803 172.15V175.139H171.574V172.15H180.803ZM173.859 168.239H178.078V183.225C178.078 183.684 178.137 184.035 178.254 184.279C178.381 184.523 178.566 184.694 178.811 184.792C179.055 184.88 179.362 184.924 179.733 184.924C179.997 184.924 180.231 184.914 180.437 184.895C180.651 184.865 180.832 184.836 180.979 184.807L180.993 187.912C180.632 188.029 180.241 188.122 179.821 188.19C179.401 188.259 178.938 188.293 178.43 188.293C177.502 188.293 176.691 188.142 175.998 187.839C175.314 187.526 174.787 187.028 174.416 186.345C174.045 185.661 173.859 184.763 173.859 183.649V168.239Z" fill="#FFFFFC"/>
<defs>
<linearGradient id="paint0_linear_1514_2065" x1="0" y1="145" x2="290" y2="145" gradientUnits="userSpaceOnUse">
<stop stop-color="#F94E9B"/>
<stop offset="1" stop-color="#910BEA"/>
</linearGradient>
</defs>
</svg>
