<svg width="290" height="290" viewBox="0 0 290 290" fill="none" xmlns="http://www.w3.org/2000/svg">
<path d="M217.471 248.5C219.578 251.508 223.736 252.252 226.636 249.998C246.981 234.18 262.333 212.757 270.754 188.301C279.898 161.744 280.4 132.974 272.189 106.115C263.977 79.255 247.473 55.6845 225.041 38.7815C202.61 21.8784 175.404 12.5104 147.321 12.0203C119.239 11.5301 91.7217 19.9428 68.7143 36.0528C45.7069 52.1628 28.3902 75.1428 19.246 101.699C10.1018 128.256 9.59967 157.026 17.8115 183.885C25.3739 208.621 39.9691 230.567 59.7495 247.085C62.5685 249.439 66.7504 248.841 68.9607 245.908V245.908C71.171 242.974 70.5713 238.819 67.7654 236.449C50.2217 221.633 37.2715 202.046 30.5303 179.997C23.1397 155.823 23.5917 129.93 31.8214 106.03C40.0512 82.1286 55.6362 61.4465 76.3429 46.9475C97.0495 32.4486 121.815 24.8771 147.089 25.3182C172.363 25.7594 196.849 34.1905 217.037 49.4033C237.225 64.6161 252.079 85.8295 259.47 110.003C266.86 134.177 266.408 160.07 258.179 183.971C250.672 205.771 237.046 224.894 218.996 239.089C216.109 241.359 215.365 245.491 217.471 248.5V248.5Z" fill="#FFFFFC"/>
<path d="M72.4561 247.38C66.2222 256.178 53.9265 258.344 46.0451 250.986C28.4721 234.579 15.1758 213.982 7.48603 190.988C-2.2774 161.793 -2.49598 130.249 6.86194 100.922C16.2199 71.5948 34.6686 46.0069 59.5372 27.8629C84.4058 9.71883 114.404 -0.039692 145.188 0.000121268C175.971 0.0399346 205.944 9.87602 230.766 28.0843C255.587 46.2926 273.97 71.9281 283.252 101.279C292.534 130.631 292.233 162.174 282.395 191.344C274.645 214.318 261.296 234.88 243.68 251.241C235.78 258.579 223.49 256.382 217.279 247.568V247.568C211.068 238.754 213.342 226.68 220.869 218.96C231.886 207.658 240.299 193.975 245.396 178.864C252.585 157.549 252.804 134.5 246.022 113.053C239.239 91.6056 225.807 72.8735 207.67 59.5685C189.532 46.2635 167.631 39.0762 145.137 39.0471C122.643 39.018 100.723 46.1487 82.5515 59.4067C64.3797 72.6647 50.899 91.3621 44.0611 112.792C37.2232 134.221 37.3829 157.271 44.5172 178.604C49.575 193.728 57.9524 207.433 68.9403 218.763C76.4469 226.503 78.69 238.583 72.4561 247.38V247.38Z" fill="url(#paint0_linear_1514_2102)"/>
<path d="M116.069 128.813L110.454 127.471L112.48 109.453H132.451V115.142H118.267L117.388 123.027C117.86 122.751 118.576 122.458 119.536 122.148C120.496 121.823 121.571 121.66 122.759 121.66C124.484 121.66 126.014 121.929 127.349 122.466C128.683 123.003 129.814 123.784 130.742 124.81C131.686 125.835 132.402 127.088 132.891 128.569C133.379 130.05 133.623 131.727 133.623 133.599C133.623 135.177 133.379 136.683 132.891 138.115C132.402 139.531 131.662 140.801 130.669 141.924C129.676 143.031 128.431 143.901 126.934 144.536C125.436 145.171 123.662 145.488 121.611 145.488C120.081 145.488 118.6 145.26 117.168 144.805C115.752 144.349 114.474 143.674 113.335 142.778C112.212 141.883 111.309 140.801 110.625 139.531C109.958 138.245 109.608 136.781 109.575 135.137H116.558C116.655 136.146 116.916 137.017 117.339 137.749C117.778 138.465 118.356 139.019 119.072 139.409C119.788 139.8 120.627 139.995 121.587 139.995C122.482 139.995 123.247 139.824 123.882 139.482C124.517 139.141 125.029 138.669 125.42 138.066C125.811 137.448 126.095 136.732 126.274 135.918C126.47 135.088 126.567 134.193 126.567 133.232C126.567 132.272 126.453 131.401 126.226 130.62C125.998 129.839 125.648 129.163 125.176 128.594C124.704 128.024 124.102 127.585 123.369 127.275C122.653 126.966 121.815 126.812 120.854 126.812C119.552 126.812 118.543 127.015 117.827 127.422C117.127 127.829 116.541 128.293 116.069 128.813ZM153.643 109.453L140.605 148.052H135.381L148.418 109.453H153.643ZM163.335 128.813L157.72 127.471L159.746 109.453H179.717V115.142H165.532L164.653 123.027C165.125 122.751 165.841 122.458 166.802 122.148C167.762 121.823 168.836 121.66 170.024 121.66C171.75 121.66 173.28 121.929 174.614 122.466C175.949 123.003 177.08 123.784 178.008 124.81C178.952 125.835 179.668 127.088 180.156 128.569C180.645 130.05 180.889 131.727 180.889 133.599C180.889 135.177 180.645 136.683 180.156 138.115C179.668 139.531 178.927 140.801 177.935 141.924C176.942 143.031 175.697 143.901 174.199 144.536C172.702 145.171 170.928 145.488 168.877 145.488C167.347 145.488 165.866 145.26 164.434 144.805C163.018 144.349 161.74 143.674 160.601 142.778C159.478 141.883 158.574 140.801 157.891 139.531C157.223 138.245 156.873 136.781 156.841 135.137H163.823C163.921 136.146 164.181 137.017 164.604 137.749C165.044 138.465 165.622 139.019 166.338 139.409C167.054 139.8 167.892 139.995 168.853 139.995C169.748 139.995 170.513 139.824 171.147 139.482C171.782 139.141 172.295 138.669 172.686 138.066C173.076 137.448 173.361 136.732 173.54 135.918C173.735 135.088 173.833 134.193 173.833 133.232C173.833 132.272 173.719 131.401 173.491 130.62C173.263 129.839 172.913 129.163 172.441 128.594C171.969 128.024 171.367 127.585 170.635 127.275C169.919 126.966 169.08 126.812 168.12 126.812C166.818 126.812 165.809 127.015 165.093 127.422C164.393 127.829 163.807 128.293 163.335 128.813Z" fill="#4CC9F0"/>
<path d="M105.21 180.397H99.7754V176.97H105.21C106.05 176.97 106.733 176.833 107.261 176.56C107.788 176.276 108.174 175.886 108.418 175.388C108.662 174.89 108.784 174.328 108.784 173.703C108.784 173.068 108.662 172.478 108.418 171.931C108.174 171.384 107.788 170.944 107.261 170.612C106.733 170.28 106.05 170.114 105.21 170.114H101.299V188H96.9043V166.672H105.21C106.88 166.672 108.311 166.975 109.502 167.58C110.703 168.176 111.621 169.001 112.256 170.056C112.891 171.11 113.208 172.316 113.208 173.674C113.208 175.051 112.891 176.242 112.256 177.248C111.621 178.254 110.703 179.03 109.502 179.577C108.311 180.124 106.88 180.397 105.21 180.397ZM123.066 188.293C121.836 188.293 120.732 188.098 119.756 187.707C118.779 187.307 117.949 186.755 117.266 186.052C116.592 185.349 116.074 184.533 115.713 183.605C115.352 182.668 115.171 181.672 115.171 180.617V180.031C115.171 178.83 115.342 177.731 115.684 176.735C116.025 175.739 116.514 174.875 117.148 174.143C117.793 173.41 118.574 172.849 119.492 172.458C120.41 172.058 121.445 171.857 122.598 171.857C123.721 171.857 124.717 172.043 125.586 172.414C126.455 172.785 127.183 173.312 127.769 173.996C128.364 174.68 128.813 175.5 129.116 176.457C129.419 177.404 129.57 178.459 129.57 179.621V181.379H116.973V178.566H125.425V178.244C125.425 177.658 125.317 177.136 125.103 176.677C124.897 176.208 124.585 175.837 124.165 175.563C123.745 175.29 123.208 175.153 122.554 175.153C121.997 175.153 121.519 175.275 121.118 175.52C120.718 175.764 120.391 176.105 120.137 176.545C119.893 176.984 119.707 177.502 119.58 178.098C119.463 178.684 119.404 179.328 119.404 180.031V180.617C119.404 181.252 119.492 181.838 119.668 182.375C119.854 182.912 120.112 183.376 120.444 183.767C120.786 184.157 121.196 184.46 121.675 184.675C122.163 184.89 122.715 184.997 123.33 184.997C124.092 184.997 124.8 184.851 125.454 184.558C126.118 184.255 126.689 183.801 127.168 183.195L129.219 185.422C128.887 185.9 128.433 186.359 127.856 186.799C127.29 187.238 126.606 187.6 125.806 187.883C125.005 188.156 124.092 188.293 123.066 188.293ZM136.191 175.607V188H131.973V172.15H135.942L136.191 175.607ZM140.967 172.048L140.894 175.959C140.688 175.93 140.439 175.905 140.146 175.886C139.863 175.856 139.604 175.842 139.37 175.842C138.774 175.842 138.257 175.92 137.817 176.076C137.388 176.223 137.026 176.442 136.733 176.735C136.45 177.028 136.235 177.385 136.089 177.805C135.952 178.225 135.874 178.703 135.854 179.24L135.005 178.977C135.005 177.951 135.107 177.009 135.312 176.149C135.518 175.28 135.815 174.523 136.206 173.879C136.606 173.234 137.095 172.736 137.671 172.385C138.247 172.033 138.906 171.857 139.648 171.857C139.883 171.857 140.122 171.877 140.366 171.916C140.61 171.945 140.811 171.989 140.967 172.048ZM148.628 188H144.38V170.744C144.38 169.543 144.614 168.532 145.083 167.712C145.562 166.882 146.23 166.257 147.09 165.837C147.959 165.407 148.989 165.192 150.181 165.192C150.571 165.192 150.947 165.222 151.309 165.28C151.67 165.329 152.021 165.393 152.363 165.471L152.319 168.649C152.134 168.601 151.938 168.566 151.733 168.547C151.528 168.527 151.289 168.518 151.016 168.518C150.508 168.518 150.073 168.605 149.712 168.781C149.36 168.947 149.092 169.196 148.906 169.528C148.721 169.86 148.628 170.266 148.628 170.744V188ZM151.792 172.15V175.139H142.021V172.15H151.792ZM160.947 188.293C159.717 188.293 158.613 188.098 157.637 187.707C156.66 187.307 155.83 186.755 155.146 186.052C154.473 185.349 153.955 184.533 153.594 183.605C153.232 182.668 153.052 181.672 153.052 180.617V180.031C153.052 178.83 153.223 177.731 153.564 176.735C153.906 175.739 154.395 174.875 155.029 174.143C155.674 173.41 156.455 172.849 157.373 172.458C158.291 172.058 159.326 171.857 160.479 171.857C161.602 171.857 162.598 172.043 163.467 172.414C164.336 172.785 165.063 173.312 165.649 173.996C166.245 174.68 166.694 175.5 166.997 176.457C167.3 177.404 167.451 178.459 167.451 179.621V181.379H154.854V178.566H163.306V178.244C163.306 177.658 163.198 177.136 162.983 176.677C162.778 176.208 162.466 175.837 162.046 175.563C161.626 175.29 161.089 175.153 160.435 175.153C159.878 175.153 159.399 175.275 158.999 175.52C158.599 175.764 158.271 176.105 158.018 176.545C157.773 176.984 157.588 177.502 157.461 178.098C157.344 178.684 157.285 179.328 157.285 180.031V180.617C157.285 181.252 157.373 181.838 157.549 182.375C157.734 182.912 157.993 183.376 158.325 183.767C158.667 184.157 159.077 184.46 159.556 184.675C160.044 184.89 160.596 184.997 161.211 184.997C161.973 184.997 162.681 184.851 163.335 184.558C163.999 184.255 164.57 183.801 165.049 183.195L167.1 185.422C166.768 185.9 166.313 186.359 165.737 186.799C165.171 187.238 164.487 187.6 163.687 187.883C162.886 188.156 161.973 188.293 160.947 188.293ZM176.401 184.997C176.919 184.997 177.378 184.899 177.778 184.704C178.179 184.499 178.491 184.216 178.716 183.854C178.95 183.483 179.072 183.049 179.082 182.551H183.052C183.042 183.664 182.744 184.655 182.158 185.524C181.572 186.384 180.786 187.062 179.8 187.561C178.813 188.049 177.71 188.293 176.489 188.293C175.259 188.293 174.185 188.088 173.267 187.678C172.358 187.268 171.602 186.701 170.996 185.979C170.391 185.246 169.937 184.396 169.634 183.43C169.331 182.453 169.18 181.408 169.18 180.295V179.87C169.18 178.747 169.331 177.702 169.634 176.735C169.937 175.759 170.391 174.909 170.996 174.187C171.602 173.454 172.358 172.883 173.267 172.473C174.175 172.062 175.239 171.857 176.46 171.857C177.759 171.857 178.896 172.106 179.873 172.604C180.859 173.103 181.631 173.815 182.188 174.743C182.754 175.661 183.042 176.75 183.052 178.01H179.082C179.072 177.482 178.96 177.004 178.745 176.574C178.54 176.145 178.237 175.803 177.837 175.549C177.446 175.285 176.963 175.153 176.387 175.153C175.771 175.153 175.269 175.285 174.878 175.549C174.487 175.803 174.185 176.154 173.97 176.604C173.755 177.043 173.604 177.546 173.516 178.112C173.438 178.669 173.398 179.255 173.398 179.87V180.295C173.398 180.91 173.438 181.501 173.516 182.067C173.594 182.634 173.74 183.137 173.955 183.576C174.18 184.016 174.487 184.362 174.878 184.616C175.269 184.87 175.776 184.997 176.401 184.997ZM193.262 172.15V175.139H184.033V172.15H193.262ZM186.318 168.239H190.537V183.225C190.537 183.684 190.596 184.035 190.713 184.279C190.84 184.523 191.025 184.694 191.27 184.792C191.514 184.88 191.821 184.924 192.192 184.924C192.456 184.924 192.69 184.914 192.896 184.895C193.11 184.865 193.291 184.836 193.438 184.807L193.452 187.912C193.091 188.029 192.7 188.122 192.28 188.19C191.86 188.259 191.396 188.293 190.889 188.293C189.961 188.293 189.15 188.142 188.457 187.839C187.773 187.526 187.246 187.028 186.875 186.345C186.504 185.661 186.318 184.763 186.318 183.649V168.239Z" fill="#FFFFFC"/>
<defs>
<linearGradient id="paint0_linear_1514_2102" x1="0" y1="145" x2="290" y2="145" gradientUnits="userSpaceOnUse">
<stop stop-color="#F94E9B"/>
<stop offset="1" stop-color="#910BEA"/>
</linearGradient>
</defs>
</svg>
