<svg width="290" height="290" viewBox="0 0 290 290" fill="none" xmlns="http://www.w3.org/2000/svg">
<path d="M217.471 248.5C219.578 251.508 223.736 252.252 226.636 249.998C246.981 234.18 262.333 212.757 270.754 188.301C279.898 161.744 280.4 132.974 272.189 106.115C263.977 79.255 247.473 55.6845 225.041 38.7815C202.61 21.8784 175.404 12.5104 147.321 12.0203C119.239 11.5301 91.7217 19.9428 68.7143 36.0528C45.7069 52.1628 28.3902 75.1428 19.246 101.699C10.1018 128.256 9.59967 157.026 17.8115 183.885C25.3739 208.621 39.9691 230.567 59.7495 247.085C62.5685 249.439 66.7504 248.841 68.9607 245.908V245.908C71.171 242.974 70.5713 238.819 67.7654 236.449C50.2217 221.633 37.2715 202.046 30.5303 179.997C23.1397 155.823 23.5917 129.93 31.8214 106.03C40.0512 82.1286 55.6362 61.4465 76.3429 46.9475C97.0495 32.4486 121.815 24.8771 147.089 25.3182C172.363 25.7594 196.849 34.1905 217.037 49.4033C237.225 64.6161 252.079 85.8295 259.47 110.003C266.86 134.177 266.408 160.07 258.179 183.971C250.672 205.771 237.046 224.894 218.996 239.089C216.109 241.359 215.365 245.491 217.471 248.5V248.5Z" fill="#FFFFFC"/>
<path d="M133.379 124.102V130.254C133.379 132.923 133.094 135.226 132.524 137.163C131.955 139.084 131.133 140.662 130.059 141.899C129.001 143.12 127.739 144.023 126.274 144.609C124.81 145.195 123.182 145.488 121.392 145.488C119.959 145.488 118.625 145.309 117.388 144.951C116.151 144.577 115.036 143.999 114.043 143.218C113.066 142.437 112.22 141.452 111.504 140.264C110.804 139.059 110.267 137.627 109.893 135.967C109.518 134.307 109.331 132.402 109.331 130.254V124.102C109.331 121.432 109.616 119.146 110.186 117.241C110.771 115.321 111.593 113.75 112.651 112.529C113.726 111.309 114.995 110.413 116.46 109.844C117.925 109.258 119.552 108.965 121.343 108.965C122.775 108.965 124.102 109.152 125.322 109.526C126.559 109.884 127.674 110.446 128.667 111.211C129.66 111.976 130.506 112.961 131.206 114.165C131.906 115.353 132.443 116.777 132.817 118.438C133.192 120.081 133.379 121.969 133.379 124.102ZM126.323 131.182V123.149C126.323 121.864 126.25 120.741 126.104 119.78C125.973 118.82 125.77 118.006 125.493 117.339C125.216 116.655 124.875 116.102 124.468 115.679C124.061 115.256 123.597 114.946 123.076 114.751C122.555 114.556 121.978 114.458 121.343 114.458C120.545 114.458 119.837 114.613 119.219 114.922C118.617 115.231 118.104 115.728 117.681 116.411C117.257 117.078 116.932 117.974 116.704 119.097C116.493 120.203 116.387 121.554 116.387 123.149V131.182C116.387 132.467 116.452 133.599 116.582 134.575C116.729 135.552 116.94 136.39 117.217 137.09C117.51 137.773 117.852 138.335 118.242 138.774C118.649 139.198 119.113 139.507 119.634 139.702C120.171 139.897 120.757 139.995 121.392 139.995C122.173 139.995 122.865 139.84 123.467 139.531C124.085 139.206 124.606 138.701 125.029 138.018C125.469 137.318 125.794 136.406 126.006 135.283C126.217 134.16 126.323 132.793 126.323 131.182ZM153.643 109.453L140.605 148.052H135.381L148.418 109.453H153.643ZM163.335 128.813L157.72 127.471L159.746 109.453H179.717V115.142H165.532L164.653 123.027C165.125 122.751 165.841 122.458 166.802 122.148C167.762 121.823 168.836 121.66 170.024 121.66C171.75 121.66 173.28 121.929 174.614 122.466C175.949 123.003 177.08 123.784 178.008 124.81C178.952 125.835 179.668 127.088 180.156 128.569C180.645 130.05 180.889 131.727 180.889 133.599C180.889 135.177 180.645 136.683 180.156 138.115C179.668 139.531 178.927 140.801 177.935 141.924C176.942 143.031 175.697 143.901 174.199 144.536C172.702 145.171 170.928 145.488 168.877 145.488C167.347 145.488 165.866 145.26 164.434 144.805C163.018 144.349 161.74 143.674 160.601 142.778C159.478 141.883 158.574 140.801 157.891 139.531C157.223 138.245 156.873 136.781 156.841 135.137H163.823C163.921 136.146 164.181 137.017 164.604 137.749C165.044 138.465 165.622 139.019 166.338 139.409C167.054 139.8 167.892 139.995 168.853 139.995C169.748 139.995 170.513 139.824 171.147 139.482C171.782 139.141 172.295 138.669 172.686 138.066C173.076 137.448 173.361 136.732 173.54 135.918C173.735 135.088 173.833 134.193 173.833 133.232C173.833 132.272 173.719 131.401 173.491 130.62C173.263 129.839 172.913 129.163 172.441 128.594C171.969 128.024 171.367 127.585 170.635 127.275C169.919 126.966 169.08 126.812 168.12 126.812C166.818 126.812 165.809 127.015 165.093 127.422C164.393 127.829 163.807 128.293 163.335 128.813Z" fill="#4CC9F0"/>
<path d="M91.4404 166.672V188H87.0605V166.672H91.4404ZM98.0029 166.672V170.114H80.6006V166.672H98.0029ZM103.438 175.607V188H99.2188V172.15H103.188L103.438 175.607ZM108.213 172.048L108.14 175.959C107.935 175.93 107.686 175.905 107.393 175.886C107.109 175.856 106.851 175.842 106.616 175.842C106.021 175.842 105.503 175.92 105.063 176.076C104.634 176.223 104.272 176.442 103.979 176.735C103.696 177.028 103.481 177.385 103.335 177.805C103.198 178.225 103.12 178.703 103.101 179.24L102.251 178.977C102.251 177.951 102.354 177.009 102.559 176.149C102.764 175.28 103.062 174.523 103.452 173.879C103.853 173.234 104.341 172.736 104.917 172.385C105.493 172.033 106.152 171.857 106.895 171.857C107.129 171.857 107.368 171.877 107.612 171.916C107.856 171.945 108.057 171.989 108.213 172.048ZM115.171 186.213L119.375 172.15H123.901L117.529 190.388C117.393 190.788 117.207 191.218 116.973 191.677C116.748 192.136 116.44 192.57 116.05 192.98C115.669 193.4 115.186 193.742 114.6 194.006C114.023 194.27 113.315 194.401 112.476 194.401C112.075 194.401 111.748 194.377 111.494 194.328C111.24 194.279 110.938 194.211 110.586 194.123V191.032C110.693 191.032 110.806 191.032 110.923 191.032C111.04 191.042 111.152 191.047 111.26 191.047C111.816 191.047 112.271 190.983 112.622 190.856C112.974 190.729 113.257 190.534 113.472 190.271C113.687 190.017 113.857 189.685 113.984 189.274L115.171 186.213ZM113.413 172.15L116.855 183.635L117.456 188.103L114.585 188.41L108.887 172.15H113.413ZM141.992 170.319L136.191 188H131.519L139.443 166.672H142.417L141.992 170.319ZM146.812 188L140.996 170.319L140.527 166.672H143.53L151.499 188H146.812ZM146.548 180.061V183.503H135.283V180.061H146.548ZM163.247 172.15H167.07V187.473C167.07 188.918 166.748 190.144 166.104 191.149C165.469 192.165 164.58 192.932 163.438 193.449C162.295 193.977 160.967 194.24 159.453 194.24C158.789 194.24 158.086 194.152 157.344 193.977C156.611 193.801 155.908 193.527 155.234 193.156C154.57 192.785 154.014 192.316 153.564 191.75L155.425 189.26C155.913 189.826 156.479 190.266 157.124 190.578C157.769 190.9 158.481 191.062 159.263 191.062C160.024 191.062 160.669 190.92 161.196 190.637C161.724 190.363 162.129 189.958 162.412 189.421C162.695 188.894 162.837 188.254 162.837 187.502V175.812L163.247 172.15ZM152.583 180.266V179.958C152.583 178.747 152.729 177.648 153.022 176.662C153.325 175.666 153.75 174.812 154.297 174.099C154.854 173.386 155.527 172.834 156.318 172.443C157.109 172.053 158.003 171.857 158.999 171.857C160.054 171.857 160.938 172.053 161.65 172.443C162.363 172.834 162.949 173.391 163.408 174.113C163.867 174.826 164.224 175.671 164.478 176.647C164.741 177.614 164.946 178.674 165.093 179.826V180.5C164.946 181.604 164.727 182.629 164.434 183.576C164.141 184.523 163.755 185.354 163.276 186.066C162.798 186.77 162.202 187.316 161.489 187.707C160.786 188.098 159.946 188.293 158.97 188.293C157.993 188.293 157.109 188.093 156.318 187.692C155.537 187.292 154.868 186.73 154.312 186.008C153.755 185.285 153.325 184.436 153.022 183.459C152.729 182.482 152.583 181.418 152.583 180.266ZM156.802 179.958V180.266C156.802 180.92 156.865 181.53 156.992 182.097C157.119 182.663 157.314 183.166 157.578 183.605C157.852 184.035 158.188 184.372 158.589 184.616C158.999 184.851 159.482 184.968 160.039 184.968C160.811 184.968 161.44 184.807 161.929 184.484C162.417 184.152 162.783 183.698 163.027 183.122C163.271 182.546 163.413 181.882 163.452 181.13V179.211C163.433 178.596 163.35 178.044 163.203 177.556C163.057 177.058 162.852 176.633 162.588 176.281C162.324 175.93 161.982 175.656 161.562 175.461C161.143 175.266 160.645 175.168 160.068 175.168C159.512 175.168 159.028 175.295 158.618 175.549C158.218 175.793 157.881 176.13 157.607 176.56C157.344 176.989 157.144 177.497 157.007 178.083C156.87 178.659 156.802 179.284 156.802 179.958ZM178.906 184.426V177.365C178.906 176.857 178.823 176.423 178.657 176.062C178.491 175.69 178.232 175.402 177.881 175.197C177.539 174.992 177.095 174.89 176.548 174.89C176.079 174.89 175.674 174.973 175.332 175.139C174.99 175.295 174.727 175.524 174.541 175.827C174.355 176.12 174.263 176.467 174.263 176.867H170.044C170.044 176.193 170.2 175.554 170.513 174.948C170.825 174.343 171.279 173.811 171.875 173.352C172.471 172.883 173.179 172.517 173.999 172.253C174.829 171.989 175.757 171.857 176.782 171.857C178.013 171.857 179.106 172.062 180.063 172.473C181.021 172.883 181.772 173.498 182.319 174.318C182.876 175.139 183.154 176.164 183.154 177.395V184.177C183.154 185.046 183.208 185.759 183.315 186.315C183.423 186.862 183.579 187.341 183.784 187.751V188H179.521C179.316 187.57 179.16 187.033 179.053 186.389C178.955 185.734 178.906 185.08 178.906 184.426ZM179.463 178.347L179.492 180.734H177.134C176.577 180.734 176.094 180.798 175.684 180.925C175.273 181.052 174.937 181.232 174.673 181.467C174.409 181.691 174.214 181.955 174.087 182.258C173.97 182.561 173.911 182.893 173.911 183.254C173.911 183.615 173.994 183.942 174.16 184.235C174.326 184.519 174.565 184.743 174.878 184.909C175.19 185.065 175.557 185.144 175.977 185.144C176.611 185.144 177.163 185.017 177.632 184.763C178.101 184.509 178.462 184.196 178.716 183.825C178.979 183.454 179.116 183.103 179.126 182.771L180.239 184.558C180.083 184.958 179.868 185.373 179.595 185.803C179.331 186.232 178.994 186.638 178.584 187.019C178.174 187.39 177.681 187.697 177.104 187.941C176.528 188.176 175.845 188.293 175.054 188.293C174.048 188.293 173.135 188.093 172.314 187.692C171.504 187.282 170.859 186.721 170.381 186.008C169.912 185.285 169.678 184.465 169.678 183.547C169.678 182.717 169.834 181.979 170.146 181.335C170.459 180.69 170.918 180.148 171.523 179.709C172.139 179.26 172.905 178.923 173.823 178.698C174.741 178.464 175.806 178.347 177.017 178.347H179.463ZM190.859 172.15V188H186.626V172.15H190.859ZM186.362 168.02C186.362 167.404 186.577 166.896 187.007 166.496C187.437 166.096 188.013 165.896 188.735 165.896C189.448 165.896 190.02 166.096 190.449 166.496C190.889 166.896 191.108 167.404 191.108 168.02C191.108 168.635 190.889 169.143 190.449 169.543C190.02 169.943 189.448 170.144 188.735 170.144C188.013 170.144 187.437 169.943 187.007 169.543C186.577 169.143 186.362 168.635 186.362 168.02ZM198.477 175.534V188H194.258V172.15H198.213L198.477 175.534ZM197.861 179.519H196.719C196.719 178.347 196.87 177.292 197.173 176.354C197.476 175.407 197.9 174.602 198.447 173.938C198.994 173.264 199.644 172.751 200.396 172.399C201.157 172.038 202.007 171.857 202.944 171.857C203.687 171.857 204.365 171.965 204.98 172.18C205.596 172.395 206.123 172.736 206.562 173.205C207.012 173.674 207.354 174.294 207.588 175.065C207.832 175.837 207.954 176.779 207.954 177.893V188H203.706V177.878C203.706 177.175 203.608 176.628 203.413 176.237C203.218 175.847 202.93 175.573 202.549 175.417C202.178 175.251 201.719 175.168 201.172 175.168C200.605 175.168 200.112 175.28 199.692 175.505C199.282 175.729 198.94 176.042 198.667 176.442C198.403 176.833 198.203 177.292 198.066 177.819C197.93 178.347 197.861 178.913 197.861 179.519Z" fill="#FFFFFC"/>
</svg>
