<svg width="290" height="290" viewBox="0 0 290 290" fill="none" xmlns="http://www.w3.org/2000/svg">
<path d="M217.471 248.5C219.578 251.508 223.736 252.252 226.636 249.998C246.981 234.18 262.333 212.757 270.754 188.301C279.898 161.744 280.4 132.974 272.189 106.115C263.977 79.255 247.473 55.6845 225.041 38.7815C202.61 21.8784 175.404 12.5104 147.321 12.0203C119.239 11.5301 91.7217 19.9428 68.7143 36.0528C45.7069 52.1628 28.3902 75.1428 19.246 101.699C10.1018 128.256 9.59967 157.026 17.8115 183.885C25.3739 208.621 39.9691 230.567 59.7495 247.085C62.5685 249.439 66.7504 248.841 68.9607 245.908V245.908C71.171 242.974 70.5713 238.819 67.7654 236.449C50.2217 221.633 37.2715 202.046 30.5303 179.997C23.1397 155.823 23.5917 129.93 31.8214 106.03C40.0512 82.1286 55.6362 61.4465 76.3429 46.9475C97.0495 32.4486 121.815 24.8771 147.089 25.3182C172.363 25.7594 196.849 34.1905 217.037 49.4033C237.225 64.6161 252.079 85.8295 259.47 110.003C266.86 134.177 266.408 160.07 258.179 183.971C250.672 205.771 237.046 224.894 218.996 239.089C216.109 241.359 215.365 245.491 217.471 248.5V248.5Z" fill="#FFFFFC"/>
<path d="M72.4561 247.38C66.2222 256.178 53.9265 258.344 46.0452 250.986C28.5891 234.688 15.3512 214.254 7.63803 191.44C-0.0751791 168.626 -1.95225 144.352 2.03276 120.805C3.83198 110.173 14.9196 104.434 25.2132 107.644V107.644C35.5068 110.854 41.0537 121.816 39.7841 132.524C37.9394 148.082 39.5587 163.939 44.6282 178.934C49.6978 193.929 58.0334 207.516 68.9403 218.763C76.4469 226.503 78.69 238.583 72.4561 247.38V247.38Z" fill="url(#paint0_linear_1514_2084)"/>
<path d="M126.592 109.38V145H119.561V117.485L111.113 120.171V114.629L125.835 109.38H126.592ZM153.643 109.453L140.605 148.052H135.381L148.418 109.453H153.643ZM163.335 128.813L157.72 127.471L159.746 109.453H179.717V115.142H165.532L164.653 123.027C165.125 122.751 165.841 122.458 166.802 122.148C167.762 121.823 168.836 121.66 170.024 121.66C171.75 121.66 173.28 121.929 174.614 122.466C175.949 123.003 177.08 123.784 178.008 124.81C178.952 125.835 179.668 127.088 180.156 128.569C180.645 130.05 180.889 131.727 180.889 133.599C180.889 135.177 180.645 136.683 180.156 138.115C179.668 139.531 178.927 140.801 177.935 141.924C176.942 143.031 175.697 143.901 174.199 144.536C172.702 145.171 170.928 145.488 168.877 145.488C167.347 145.488 165.866 145.26 164.434 144.805C163.018 144.349 161.74 143.674 160.601 142.778C159.478 141.883 158.574 140.801 157.891 139.531C157.223 138.245 156.873 136.781 156.841 135.137H163.823C163.921 136.146 164.181 137.017 164.604 137.749C165.044 138.465 165.622 139.019 166.338 139.409C167.054 139.8 167.892 139.995 168.853 139.995C169.748 139.995 170.513 139.824 171.147 139.482C171.782 139.141 172.295 138.669 172.686 138.066C173.076 137.448 173.361 136.732 173.54 135.918C173.735 135.088 173.833 134.193 173.833 133.232C173.833 132.272 173.719 131.401 173.491 130.62C173.263 129.839 172.913 129.163 172.441 128.594C171.969 128.024 171.367 127.585 170.635 127.275C169.919 126.966 169.08 126.812 168.12 126.812C166.818 126.812 165.809 127.015 165.093 127.422C164.393 127.829 163.807 128.293 163.335 128.813Z" fill="#4CC9F0"/>
<path d="M78.5771 166.672V188H74.1973V166.672H78.5771ZM86.6484 175.432V188H82.415V172.15H86.3848L86.6484 175.432ZM86.0625 179.519H84.8906C84.8906 178.415 85.0225 177.399 85.2861 176.472C85.5596 175.534 85.9551 174.724 86.4727 174.04C87 173.347 87.6494 172.81 88.4209 172.429C89.1924 172.048 90.0859 171.857 91.1016 171.857C91.8047 171.857 92.4492 171.965 93.0352 172.18C93.6211 172.385 94.124 172.712 94.5439 173.161C94.9736 173.601 95.3057 174.177 95.54 174.89C95.7744 175.593 95.8916 176.438 95.8916 177.424V188H91.6729V177.893C91.6729 177.17 91.5752 176.613 91.3799 176.223C91.1846 175.832 90.9062 175.559 90.5449 175.402C90.1934 175.246 89.7686 175.168 89.2705 175.168C88.7236 175.168 88.2451 175.28 87.835 175.505C87.4346 175.729 87.1025 176.042 86.8389 176.442C86.5752 176.833 86.3799 177.292 86.2529 177.819C86.126 178.347 86.0625 178.913 86.0625 179.519ZM95.4961 179.035L93.9873 179.226C93.9873 178.19 94.1143 177.229 94.3682 176.34C94.6318 175.451 95.0176 174.67 95.5254 173.996C96.043 173.322 96.6826 172.8 97.4443 172.429C98.2061 172.048 99.085 171.857 100.081 171.857C100.843 171.857 101.536 171.97 102.161 172.194C102.786 172.409 103.318 172.756 103.758 173.234C104.207 173.703 104.549 174.318 104.783 175.08C105.027 175.842 105.149 176.774 105.149 177.878V188H100.916V177.878C100.916 177.146 100.818 176.589 100.623 176.208C100.438 175.817 100.164 175.549 99.8027 175.402C99.4512 175.246 99.0312 175.168 98.543 175.168C98.0352 175.168 97.5908 175.271 97.21 175.476C96.8291 175.671 96.5117 175.944 96.2578 176.296C96.0039 176.647 95.8135 177.058 95.6865 177.526C95.5596 177.985 95.4961 178.488 95.4961 179.035ZM112.635 175.197V194.094H108.416V172.15H112.327L112.635 175.197ZM122.669 179.899V180.207C122.669 181.359 122.532 182.429 122.259 183.415C121.995 184.401 121.604 185.261 121.087 185.993C120.569 186.716 119.925 187.282 119.153 187.692C118.392 188.093 117.513 188.293 116.517 188.293C115.55 188.293 114.71 188.098 113.997 187.707C113.284 187.316 112.684 186.77 112.195 186.066C111.717 185.354 111.331 184.528 111.038 183.591C110.745 182.653 110.521 181.647 110.364 180.573V179.768C110.521 178.615 110.745 177.561 111.038 176.604C111.331 175.637 111.717 174.802 112.195 174.099C112.684 173.386 113.279 172.834 113.982 172.443C114.695 172.053 115.53 171.857 116.487 171.857C117.493 171.857 118.377 172.048 119.139 172.429C119.91 172.81 120.555 173.356 121.072 174.069C121.6 174.782 121.995 175.632 122.259 176.618C122.532 177.604 122.669 178.698 122.669 179.899ZM118.436 180.207V179.899C118.436 179.226 118.377 178.605 118.26 178.039C118.152 177.463 117.977 176.96 117.732 176.53C117.498 176.101 117.186 175.769 116.795 175.534C116.414 175.29 115.95 175.168 115.403 175.168C114.827 175.168 114.334 175.261 113.924 175.446C113.523 175.632 113.196 175.9 112.942 176.252C112.688 176.604 112.498 177.023 112.371 177.512C112.244 178 112.166 178.552 112.137 179.167V181.203C112.186 181.926 112.322 182.575 112.547 183.151C112.771 183.718 113.118 184.167 113.587 184.499C114.056 184.831 114.671 184.997 115.433 184.997C115.989 184.997 116.458 184.875 116.839 184.631C117.22 184.377 117.527 184.03 117.762 183.591C118.006 183.151 118.177 182.644 118.274 182.067C118.382 181.491 118.436 180.871 118.436 180.207ZM129.51 175.607V188H125.291V172.15H129.261L129.51 175.607ZM134.285 172.048L134.212 175.959C134.007 175.93 133.758 175.905 133.465 175.886C133.182 175.856 132.923 175.842 132.688 175.842C132.093 175.842 131.575 175.92 131.136 176.076C130.706 176.223 130.345 176.442 130.052 176.735C129.769 177.028 129.554 177.385 129.407 177.805C129.271 178.225 129.192 178.703 129.173 179.24L128.323 178.977C128.323 177.951 128.426 177.009 128.631 176.149C128.836 175.28 129.134 174.523 129.524 173.879C129.925 173.234 130.413 172.736 130.989 172.385C131.565 172.033 132.225 171.857 132.967 171.857C133.201 171.857 133.44 171.877 133.685 171.916C133.929 171.945 134.129 171.989 134.285 172.048ZM135.164 180.236V179.929C135.164 178.767 135.33 177.697 135.662 176.721C135.994 175.734 136.478 174.88 137.112 174.157C137.747 173.435 138.528 172.873 139.456 172.473C140.384 172.062 141.448 171.857 142.649 171.857C143.851 171.857 144.92 172.062 145.857 172.473C146.795 172.873 147.581 173.435 148.216 174.157C148.86 174.88 149.349 175.734 149.681 176.721C150.013 177.697 150.179 178.767 150.179 179.929V180.236C150.179 181.389 150.013 182.458 149.681 183.444C149.349 184.421 148.86 185.275 148.216 186.008C147.581 186.73 146.8 187.292 145.872 187.692C144.944 188.093 143.88 188.293 142.679 188.293C141.478 188.293 140.408 188.093 139.471 187.692C138.543 187.292 137.757 186.73 137.112 186.008C136.478 185.275 135.994 184.421 135.662 183.444C135.33 182.458 135.164 181.389 135.164 180.236ZM139.383 179.929V180.236C139.383 180.9 139.441 181.521 139.559 182.097C139.676 182.673 139.861 183.181 140.115 183.62C140.379 184.05 140.721 184.387 141.141 184.631C141.561 184.875 142.073 184.997 142.679 184.997C143.265 184.997 143.768 184.875 144.188 184.631C144.607 184.387 144.944 184.05 145.198 183.62C145.452 183.181 145.638 182.673 145.755 182.097C145.882 181.521 145.945 180.9 145.945 180.236V179.929C145.945 179.284 145.882 178.679 145.755 178.112C145.638 177.536 145.447 177.028 145.184 176.589C144.93 176.14 144.593 175.788 144.173 175.534C143.753 175.28 143.245 175.153 142.649 175.153C142.054 175.153 141.546 175.28 141.126 175.534C140.716 175.788 140.379 176.14 140.115 176.589C139.861 177.028 139.676 177.536 139.559 178.112C139.441 178.679 139.383 179.284 139.383 179.929ZM157.928 184.924L161.443 172.15H165.853L160.506 188H157.84L157.928 184.924ZM155.511 172.15L159.041 184.938L159.114 188H156.434L151.087 172.15H155.511ZM172.195 172.15V188H167.962V172.15H172.195ZM167.698 168.02C167.698 167.404 167.913 166.896 168.343 166.496C168.772 166.096 169.349 165.896 170.071 165.896C170.784 165.896 171.355 166.096 171.785 166.496C172.225 166.896 172.444 167.404 172.444 168.02C172.444 168.635 172.225 169.143 171.785 169.543C171.355 169.943 170.784 170.144 170.071 170.144C169.349 170.144 168.772 169.943 168.343 169.543C167.913 169.143 167.698 168.635 167.698 168.02ZM179.812 175.534V188H175.594V172.15H179.549L179.812 175.534ZM179.197 179.519H178.055C178.055 178.347 178.206 177.292 178.509 176.354C178.812 175.407 179.236 174.602 179.783 173.938C180.33 173.264 180.979 172.751 181.731 172.399C182.493 172.038 183.343 171.857 184.28 171.857C185.022 171.857 185.701 171.965 186.316 172.18C186.932 172.395 187.459 172.736 187.898 173.205C188.348 173.674 188.689 174.294 188.924 175.065C189.168 175.837 189.29 176.779 189.29 177.893V188H185.042V177.878C185.042 177.175 184.944 176.628 184.749 176.237C184.554 175.847 184.266 175.573 183.885 175.417C183.514 175.251 183.055 175.168 182.508 175.168C181.941 175.168 181.448 175.28 181.028 175.505C180.618 175.729 180.276 176.042 180.003 176.442C179.739 176.833 179.539 177.292 179.402 177.819C179.266 178.347 179.197 178.913 179.197 179.519ZM202.532 172.15H206.355V187.473C206.355 188.918 206.033 190.144 205.389 191.149C204.754 192.165 203.865 192.932 202.723 193.449C201.58 193.977 200.252 194.24 198.738 194.24C198.074 194.24 197.371 194.152 196.629 193.977C195.896 193.801 195.193 193.527 194.52 193.156C193.855 192.785 193.299 192.316 192.85 191.75L194.71 189.26C195.198 189.826 195.765 190.266 196.409 190.578C197.054 190.9 197.767 191.062 198.548 191.062C199.31 191.062 199.954 190.92 200.481 190.637C201.009 190.363 201.414 189.958 201.697 189.421C201.98 188.894 202.122 188.254 202.122 187.502V175.812L202.532 172.15ZM191.868 180.266V179.958C191.868 178.747 192.015 177.648 192.308 176.662C192.61 175.666 193.035 174.812 193.582 174.099C194.139 173.386 194.812 172.834 195.604 172.443C196.395 172.053 197.288 171.857 198.284 171.857C199.339 171.857 200.223 172.053 200.936 172.443C201.648 172.834 202.234 173.391 202.693 174.113C203.152 174.826 203.509 175.671 203.763 176.647C204.026 177.614 204.231 178.674 204.378 179.826V180.5C204.231 181.604 204.012 182.629 203.719 183.576C203.426 184.523 203.04 185.354 202.562 186.066C202.083 186.77 201.487 187.316 200.774 187.707C200.071 188.098 199.231 188.293 198.255 188.293C197.278 188.293 196.395 188.093 195.604 187.692C194.822 187.292 194.153 186.73 193.597 186.008C193.04 185.285 192.61 184.436 192.308 183.459C192.015 182.482 191.868 181.418 191.868 180.266ZM196.087 179.958V180.266C196.087 180.92 196.15 181.53 196.277 182.097C196.404 182.663 196.6 183.166 196.863 183.605C197.137 184.035 197.474 184.372 197.874 184.616C198.284 184.851 198.768 184.968 199.324 184.968C200.096 184.968 200.726 184.807 201.214 184.484C201.702 184.152 202.068 183.698 202.312 183.122C202.557 182.546 202.698 181.882 202.737 181.13V179.211C202.718 178.596 202.635 178.044 202.488 177.556C202.342 177.058 202.137 176.633 201.873 176.281C201.609 175.93 201.268 175.656 200.848 175.461C200.428 175.266 199.93 175.168 199.354 175.168C198.797 175.168 198.313 175.295 197.903 175.549C197.503 175.793 197.166 176.13 196.893 176.56C196.629 176.989 196.429 177.497 196.292 178.083C196.155 178.659 196.087 179.284 196.087 179.958ZM214.397 166.672L213.914 181.481H210.398L209.9 166.672H214.397ZM209.783 186.066C209.783 185.441 209.998 184.924 210.428 184.514C210.867 184.094 211.443 183.884 212.156 183.884C212.879 183.884 213.455 184.094 213.885 184.514C214.314 184.924 214.529 185.441 214.529 186.066C214.529 186.672 214.314 187.185 213.885 187.604C213.455 188.024 212.879 188.234 212.156 188.234C211.443 188.234 210.867 188.024 210.428 187.604C209.998 187.185 209.783 186.672 209.783 186.066Z" fill="#FFFFFC"/>
<defs>
<linearGradient id="paint0_linear_1514_2084" x1="0" y1="145" x2="290" y2="145" gradientUnits="userSpaceOnUse">
<stop stop-color="#F94E9B"/>
<stop offset="1" stop-color="#910BEA"/>
</linearGradient>
</defs>
</svg>
