<svg width="290" height="290" viewBox="0 0 290 290" fill="none" xmlns="http://www.w3.org/2000/svg">
<path d="M217.471 248.5C219.578 251.508 223.736 252.252 226.636 249.998C246.981 234.18 262.333 212.757 270.754 188.301C279.898 161.744 280.4 132.974 272.189 106.115C263.977 79.255 247.473 55.6845 225.041 38.7815C202.61 21.8784 175.404 12.5104 147.321 12.0203C119.239 11.5301 91.7217 19.9428 68.7143 36.0528C45.7069 52.1628 28.3902 75.1428 19.246 101.699C10.1018 128.256 9.59967 157.026 17.8115 183.885C25.3739 208.621 39.9691 230.567 59.7495 247.085C62.5685 249.439 66.7504 248.841 68.9607 245.908V245.908C71.171 242.974 70.5713 238.819 67.7654 236.449C50.2217 221.633 37.2715 202.046 30.5303 179.997C23.1397 155.823 23.5917 129.93 31.8214 106.03C40.0512 82.1286 55.6362 61.4465 76.3429 46.9475C97.0495 32.4486 121.815 24.8771 147.089 25.3182C172.363 25.7594 196.849 34.1905 217.037 49.4033C237.225 64.6161 252.079 85.8295 259.47 110.003C266.86 134.177 266.408 160.07 258.179 183.971C250.672 205.771 237.046 224.894 218.996 239.089C216.109 241.359 215.365 245.491 217.471 248.5V248.5Z" fill="#FFFFFC"/>
<path d="M72.4561 247.38C66.2222 256.178 53.9265 258.344 46.0452 250.986C28.5891 234.688 15.3512 214.254 7.63803 191.44C-2.16917 162.432 -2.5413 131.064 6.57498 101.832C15.6913 72.5991 33.8279 47.003 58.3856 28.7118C77.6998 14.3261 100.206 5.03975 123.832 1.55331C134.499 -0.0208127 143.384 8.75056 143.512 19.5323V19.5323C143.639 30.3141 134.928 38.977 124.352 41.0783C108.986 44.1316 94.4043 50.572 81.71 60.027C63.7654 73.3926 50.5128 92.0959 43.8514 113.456C37.1901 134.817 37.462 157.738 44.6282 178.934C49.6978 193.929 58.0334 207.516 68.9403 218.763C76.4469 226.503 78.69 238.583 72.4561 247.38V247.38Z" fill="url(#paint0_linear_1514_2090)"/>
<path d="M133.77 139.507V145H109.453V140.312L120.952 127.983C122.108 126.698 123.019 125.566 123.687 124.59C124.354 123.597 124.834 122.71 125.127 121.929C125.436 121.131 125.591 120.374 125.591 119.658C125.591 118.584 125.412 117.664 125.054 116.899C124.696 116.118 124.167 115.516 123.467 115.093C122.783 114.67 121.937 114.458 120.928 114.458C119.854 114.458 118.926 114.718 118.145 115.239C117.38 115.76 116.794 116.484 116.387 117.412C115.996 118.34 115.801 119.39 115.801 120.562H108.745C108.745 118.446 109.25 116.509 110.259 114.751C111.268 112.977 112.692 111.569 114.531 110.527C116.37 109.469 118.551 108.94 121.074 108.94C123.564 108.94 125.664 109.347 127.373 110.161C129.098 110.959 130.4 112.114 131.279 113.628C132.174 115.125 132.622 116.916 132.622 118.999C132.622 120.171 132.435 121.318 132.061 122.441C131.686 123.548 131.149 124.655 130.449 125.762C129.766 126.852 128.936 127.959 127.959 129.082C126.982 130.205 125.9 131.369 124.712 132.573L118.535 139.507H133.77ZM153.643 109.453L140.605 148.052H135.381L148.418 109.453H153.643ZM163.335 128.813L157.72 127.471L159.746 109.453H179.717V115.142H165.532L164.653 123.027C165.125 122.751 165.841 122.458 166.802 122.148C167.762 121.823 168.836 121.66 170.024 121.66C171.75 121.66 173.28 121.929 174.614 122.466C175.949 123.003 177.08 123.784 178.008 124.81C178.952 125.835 179.668 127.088 180.156 128.569C180.645 130.05 180.889 131.727 180.889 133.599C180.889 135.177 180.645 136.683 180.156 138.115C179.668 139.531 178.927 140.801 177.935 141.924C176.942 143.031 175.697 143.901 174.199 144.536C172.702 145.171 170.928 145.488 168.877 145.488C167.347 145.488 165.866 145.26 164.434 144.805C163.018 144.349 161.74 143.674 160.601 142.778C159.478 141.883 158.574 140.801 157.891 139.531C157.223 138.245 156.873 136.781 156.841 135.137H163.823C163.921 136.146 164.181 137.017 164.604 137.749C165.044 138.465 165.622 139.019 166.338 139.409C167.054 139.8 167.892 139.995 168.853 139.995C169.748 139.995 170.513 139.824 171.147 139.482C171.782 139.141 172.295 138.669 172.686 138.066C173.076 137.448 173.361 136.732 173.54 135.918C173.735 135.088 173.833 134.193 173.833 133.232C173.833 132.272 173.719 131.401 173.491 130.62C173.263 129.839 172.913 129.163 172.441 128.594C171.969 128.024 171.367 127.585 170.635 127.275C169.919 126.966 169.08 126.812 168.12 126.812C166.818 126.812 165.809 127.015 165.093 127.422C164.393 127.829 163.807 128.293 163.335 128.813Z" fill="#4CC9F0"/>
<path d="M110.263 166.672V188H105.868L97.2988 173.703V188H92.9043V166.672H97.2988L105.883 180.983V166.672H110.263ZM113.148 180.236V179.929C113.148 178.767 113.314 177.697 113.646 176.721C113.979 175.734 114.462 174.88 115.097 174.157C115.731 173.435 116.513 172.873 117.44 172.473C118.368 172.062 119.433 171.857 120.634 171.857C121.835 171.857 122.904 172.062 123.842 172.473C124.779 172.873 125.565 173.435 126.2 174.157C126.845 174.88 127.333 175.734 127.665 176.721C127.997 177.697 128.163 178.767 128.163 179.929V180.236C128.163 181.389 127.997 182.458 127.665 183.444C127.333 184.421 126.845 185.275 126.2 186.008C125.565 186.73 124.784 187.292 123.856 187.692C122.929 188.093 121.864 188.293 120.663 188.293C119.462 188.293 118.393 188.093 117.455 187.692C116.527 187.292 115.741 186.73 115.097 186.008C114.462 185.275 113.979 184.421 113.646 183.444C113.314 182.458 113.148 181.389 113.148 180.236ZM117.367 179.929V180.236C117.367 180.9 117.426 181.521 117.543 182.097C117.66 182.673 117.846 183.181 118.1 183.62C118.363 184.05 118.705 184.387 119.125 184.631C119.545 184.875 120.058 184.997 120.663 184.997C121.249 184.997 121.752 184.875 122.172 184.631C122.592 184.387 122.929 184.05 123.183 183.62C123.437 183.181 123.622 182.673 123.739 182.097C123.866 181.521 123.93 180.9 123.93 180.236V179.929C123.93 179.284 123.866 178.679 123.739 178.112C123.622 177.536 123.432 177.028 123.168 176.589C122.914 176.14 122.577 175.788 122.157 175.534C121.737 175.28 121.229 175.153 120.634 175.153C120.038 175.153 119.53 175.28 119.11 175.534C118.7 175.788 118.363 176.14 118.1 176.589C117.846 177.028 117.66 177.536 117.543 178.112C117.426 178.679 117.367 179.284 117.367 179.929ZM138.52 172.15V175.139H129.291V172.15H138.52ZM131.576 168.239H135.795V183.225C135.795 183.684 135.854 184.035 135.971 184.279C136.098 184.523 136.283 184.694 136.527 184.792C136.771 184.88 137.079 184.924 137.45 184.924C137.714 184.924 137.948 184.914 138.153 184.895C138.368 184.865 138.549 184.836 138.695 184.807L138.71 187.912C138.349 188.029 137.958 188.122 137.538 188.19C137.118 188.259 136.654 188.293 136.146 188.293C135.219 188.293 134.408 188.142 133.715 187.839C133.031 187.526 132.504 187.028 132.133 186.345C131.762 185.661 131.576 184.763 131.576 183.649V168.239ZM157.006 178.64H151.527L151.498 175.622H156.098C156.908 175.622 157.572 175.52 158.09 175.314C158.607 175.1 158.993 174.792 159.247 174.392C159.511 173.981 159.643 173.483 159.643 172.897C159.643 172.233 159.516 171.696 159.262 171.286C159.018 170.876 158.632 170.578 158.104 170.393C157.587 170.207 156.918 170.114 156.098 170.114H153.051V188H148.656V166.672H156.098C157.338 166.672 158.446 166.789 159.423 167.023C160.409 167.258 161.244 167.614 161.928 168.093C162.611 168.571 163.134 169.177 163.495 169.909C163.856 170.632 164.037 171.491 164.037 172.487C164.037 173.366 163.837 174.177 163.437 174.919C163.046 175.661 162.426 176.267 161.576 176.735C160.736 177.204 159.638 177.463 158.28 177.512L157.006 178.64ZM156.815 188H150.326L152.04 184.572H156.815C157.587 184.572 158.217 184.45 158.705 184.206C159.193 183.952 159.555 183.61 159.789 183.181C160.023 182.751 160.141 182.258 160.141 181.701C160.141 181.076 160.033 180.534 159.818 180.075C159.613 179.616 159.281 179.265 158.822 179.021C158.363 178.767 157.758 178.64 157.006 178.64H152.772L152.802 175.622H158.075L159.086 176.809C160.385 176.789 161.43 177.019 162.221 177.497C163.021 177.966 163.603 178.576 163.964 179.328C164.335 180.08 164.521 180.886 164.521 181.745C164.521 183.112 164.223 184.265 163.627 185.202C163.031 186.13 162.157 186.828 161.005 187.297C159.862 187.766 158.466 188 156.815 188ZM176.107 184.426V177.365C176.107 176.857 176.024 176.423 175.858 176.062C175.692 175.69 175.434 175.402 175.082 175.197C174.74 174.992 174.296 174.89 173.749 174.89C173.28 174.89 172.875 174.973 172.533 175.139C172.191 175.295 171.928 175.524 171.742 175.827C171.557 176.12 171.464 176.467 171.464 176.867H167.245C167.245 176.193 167.401 175.554 167.714 174.948C168.026 174.343 168.48 173.811 169.076 173.352C169.672 172.883 170.38 172.517 171.2 172.253C172.03 171.989 172.958 171.857 173.983 171.857C175.214 171.857 176.308 172.062 177.265 172.473C178.222 172.883 178.974 173.498 179.521 174.318C180.077 175.139 180.355 176.164 180.355 177.395V184.177C180.355 185.046 180.409 185.759 180.517 186.315C180.624 186.862 180.78 187.341 180.985 187.751V188H176.723C176.518 187.57 176.361 187.033 176.254 186.389C176.156 185.734 176.107 185.08 176.107 184.426ZM176.664 178.347L176.693 180.734H174.335C173.778 180.734 173.295 180.798 172.885 180.925C172.475 181.052 172.138 181.232 171.874 181.467C171.61 181.691 171.415 181.955 171.288 182.258C171.171 182.561 171.112 182.893 171.112 183.254C171.112 183.615 171.195 183.942 171.361 184.235C171.527 184.519 171.767 184.743 172.079 184.909C172.392 185.065 172.758 185.144 173.178 185.144C173.812 185.144 174.364 185.017 174.833 184.763C175.302 184.509 175.663 184.196 175.917 183.825C176.181 183.454 176.317 183.103 176.327 182.771L177.44 184.558C177.284 184.958 177.069 185.373 176.796 185.803C176.532 186.232 176.195 186.638 175.785 187.019C175.375 187.39 174.882 187.697 174.306 187.941C173.729 188.176 173.046 188.293 172.255 188.293C171.249 188.293 170.336 188.093 169.516 187.692C168.705 187.282 168.061 186.721 167.582 186.008C167.113 185.285 166.879 184.465 166.879 183.547C166.879 182.717 167.035 181.979 167.348 181.335C167.66 180.69 168.119 180.148 168.725 179.709C169.34 179.26 170.106 178.923 171.024 178.698C171.942 178.464 173.007 178.347 174.218 178.347H176.664ZM192.968 184.543V165.5H197.216V188H193.393L192.968 184.543ZM182.948 180.266V179.958C182.948 178.747 183.085 177.648 183.358 176.662C183.632 175.666 184.032 174.812 184.56 174.099C185.087 173.386 185.736 172.834 186.508 172.443C187.279 172.053 188.158 171.857 189.145 171.857C190.072 171.857 190.883 172.053 191.576 172.443C192.279 172.834 192.875 173.391 193.363 174.113C193.861 174.826 194.262 175.671 194.564 176.647C194.867 177.614 195.087 178.674 195.224 179.826V180.5C195.087 181.604 194.867 182.629 194.564 183.576C194.262 184.523 193.861 185.354 193.363 186.066C192.875 186.77 192.279 187.316 191.576 187.707C190.873 188.098 190.053 188.293 189.115 188.293C188.129 188.293 187.25 188.093 186.479 187.692C185.717 187.292 185.072 186.73 184.545 186.008C184.027 185.285 183.632 184.436 183.358 183.459C183.085 182.482 182.948 181.418 182.948 180.266ZM187.167 179.958V180.266C187.167 180.92 187.216 181.53 187.313 182.097C187.421 182.663 187.592 183.166 187.826 183.605C188.07 184.035 188.383 184.372 188.764 184.616C189.154 184.851 189.628 184.968 190.185 184.968C190.907 184.968 191.503 184.807 191.972 184.484C192.44 184.152 192.797 183.698 193.041 183.122C193.295 182.546 193.441 181.882 193.48 181.13V179.211C193.451 178.596 193.363 178.044 193.217 177.556C193.08 177.058 192.875 176.633 192.602 176.281C192.338 175.93 192.006 175.656 191.605 175.461C191.215 175.266 190.751 175.168 190.214 175.168C189.667 175.168 189.198 175.295 188.808 175.549C188.417 175.793 188.1 176.13 187.855 176.56C187.621 176.989 187.445 177.497 187.328 178.083C187.221 178.659 187.167 179.284 187.167 179.958Z" fill="#FFFFFC"/>
<defs>
<linearGradient id="paint0_linear_1514_2090" x1="0" y1="145" x2="290" y2="145" gradientUnits="userSpaceOnUse">
<stop stop-color="#F94E9B"/>
<stop offset="1" stop-color="#910BEA"/>
</linearGradient>
</defs>
</svg>
